<svg width="647" height="467" viewBox="0 0 647 467" fill="none" xmlns="http://www.w3.org/2000/svg">
<path d="M486.303 0.601074H156.279C149.7 0.601074 144.368 5.93376 144.368 12.512V333.53C144.368 340.108 149.7 345.441 156.279 345.441H486.303C492.882 345.441 498.214 340.108 498.214 333.53V12.512C498.214 5.93376 492.882 0.601074 486.303 0.601074Z" fill="#E5E5FF"/>
<path d="M486.299 345.924H156.278C152.996 345.915 149.851 344.606 147.531 342.283C145.212 339.96 143.908 336.813 143.903 333.53V12.5158C143.906 9.2326 145.211 6.08436 147.53 3.76058C149.849 1.43681 152.995 0.126883 156.278 0.117676H486.299C489.587 0.120748 492.738 1.42796 495.063 3.75241C497.387 6.07685 498.694 9.22859 498.697 12.5158V333.53C498.693 336.817 497.386 339.968 495.061 342.291C492.737 344.615 489.586 345.921 486.299 345.924ZM156.278 1.08447C153.248 1.08856 150.343 2.29438 148.201 4.4374C146.059 6.58042 144.854 9.48567 144.851 12.5158V333.53C144.855 336.56 146.06 339.464 148.202 341.606C150.345 343.748 153.249 344.954 156.278 344.958H486.299C489.329 344.955 492.235 343.75 494.378 341.607C496.521 339.465 497.727 336.56 497.731 333.53V12.5158C497.728 9.485 496.522 6.57916 494.379 4.43603C492.236 2.2929 489.33 1.08754 486.299 1.08447H156.278Z" fill="#CBCBFF"/>
<path d="M457.609 40.7767H382.199V46.2797H457.609V40.7767Z" fill="#9192FF"/>
<path d="M478.662 64.4636H358.512V69.9666H478.662V64.4636Z" fill="#B7B7FF"/>
<path d="M466.728 80.7406H358.512V86.2436H466.728V80.7406Z" fill="#B7B7FF"/>
<path d="M454.302 97.0135H358.512V102.517H454.302V97.0135Z" fill="#CBCBFF"/>
<path d="M478.662 113.287H358.512V118.79H478.662V113.287Z" fill="#CBCBFF"/>
<path d="M447.202 129.564H358.512V135.067H447.202V129.564Z" fill="#CBCBFF"/>
<path d="M285.191 218.83H169.876V224.333H285.191V218.83Z" fill="#B7B7FF"/>
<path d="M468.367 233.815H170.204V239.318H468.367V233.815Z" fill="#CBCBFF"/>
<path d="M308.924 40.7767H170.057V187.741H308.924V40.7767Z" fill="white"/>
<path d="M192.27 137.859H182.614V171.658H192.27V137.859Z" fill="#B7B7FF"/>
<path d="M209.618 142.623H199.962V171.658H209.618V142.623Z" fill="#E0E0FF"/>
<path d="M226.967 124.211H217.31V171.658H226.967V124.211Z" fill="#B7B7FF"/>
<path d="M244.319 127.607H234.662V171.658H244.319V127.607Z" fill="#E0E0FF"/>
<path d="M261.667 112.401H252.01V171.658H261.667V112.401Z" fill="#B7B7FF"/>
<path d="M279.015 104.187H269.359V171.658H279.015V104.187Z" fill="#E0E0FF"/>
<path d="M296.367 96.8633H286.711V171.658H296.367V96.8633Z" fill="#B7B7FF"/>
<path d="M203.102 119.327L184.872 112.034L185.22 111.163L202.936 118.252L220.988 103.313L237.826 103.704L288.582 72.3602L289.073 73.1569L238.081 104.647L221.317 104.257L203.102 119.327Z" fill="#B7B7FF"/>
<path d="M200.662 69.8932H180.855V78.1264H200.662V69.8932Z" fill="#B7B7FF"/>
<path d="M225.741 74.615H207.209V75.5818H225.741V74.615Z" fill="#B7B7FF"/>
<path d="M444.693 197.789C456.636 197.789 466.318 188.107 466.318 176.163C466.318 164.22 456.636 154.538 444.693 154.538C432.749 154.538 423.068 164.22 423.068 176.163C423.068 188.107 432.749 197.789 444.693 197.789Z" fill="white"/>
<path d="M383.069 197.792C377.625 197.788 372.383 195.731 368.389 192.032C364.394 188.333 361.941 183.264 361.519 177.837C361.097 172.409 362.737 167.022 366.111 162.75C369.485 158.478 374.346 155.635 379.724 154.789C380.831 154.62 381.949 154.534 383.069 154.534C388.806 154.534 394.307 156.813 398.363 160.869C402.42 164.925 404.698 170.427 404.698 176.163C404.698 181.899 402.42 187.401 398.363 191.457C394.307 195.513 388.806 197.792 383.069 197.792Z" fill="white"/>
<path d="M383.069 176.167L379.724 154.789C380.831 154.62 381.949 154.534 383.069 154.534C386.108 154.53 389.114 155.17 391.888 156.411C394.662 157.652 397.142 159.466 399.164 161.735L383.069 176.167Z" fill="#B7B7FF"/>
<path d="M469.172 259.911H172.412V316.951H469.172V259.911Z" fill="white"/>
<path d="M470.034 317.806H172.556V260.038H470.034V317.806ZM173.283 317.079H469.307V260.765H173.283V317.079Z" fill="#B7B7FF"/>
<path d="M469.671 305.671H172.919V306.398H469.671V305.671Z" fill="#B7B7FF"/>
<path d="M469.671 294.263H172.919V294.99H469.671V294.263Z" fill="#B7B7FF"/>
<path d="M469.671 282.855H172.919V283.582H469.671V282.855Z" fill="#B7B7FF"/>
<path d="M469.671 271.447H172.919V272.174H469.671V271.447Z" fill="#B7B7FF"/>
<path d="M420.573 260.402H419.85V317.443H420.573V260.402Z" fill="#B7B7FF"/>
<path d="M371.115 260.402H370.392V317.443H371.115V260.402Z" fill="#B7B7FF"/>
<path d="M321.655 260.402H320.931V317.443H321.655V260.402Z" fill="#B7B7FF"/>
<path d="M272.197 260.402H271.474V317.443H272.197V260.402Z" fill="#B7B7FF"/>
<path d="M222.736 260.402H222.013V317.443H222.736V260.402Z" fill="#B7B7FF"/>
<path d="M181.067 308.409C185.383 302.399 186.315 294.661 190.17 288.331C192.05 285.237 194.536 282.182 197.982 280.801C203.918 278.423 205.434 286.084 205.558 290.338C205.743 296.595 204.707 303.386 209.877 308.088C211.602 309.635 213.884 310.586 216.216 309.968C219.008 309.225 220.744 306.669 222.129 304.318C226.085 297.589 228.598 289.878 231.348 282.6C232.736 278.926 234.5 274.216 238.139 272.158C243.321 269.219 243.889 275.716 243.878 279.119C243.878 282.874 243.905 286.625 243.936 290.376C243.936 292.179 243.58 295.941 245.699 296.951C246.948 297.542 247.934 296.413 248.634 295.504C249.241 294.731 249.667 293.791 250.274 293.006C250.881 292.221 251.353 291.823 252.385 291.738C253.333 291.66 253.785 291.649 254.427 292.511C254.756 293.046 254.985 293.635 255.104 294.251C255.847 297.067 255.085 300.257 256.678 302.856C257.564 304.302 259.474 305.745 261.268 305.462C264.892 304.89 265.812 298.989 266.245 296.15C266.829 292.353 267.371 288.578 268.419 284.873C269.467 281.169 270.836 276.683 273.674 273.891C274.753 272.831 276.242 271.771 277.839 271.957C280.16 272.22 280.906 274.854 281.474 276.741C282.802 281.012 283.495 285.455 283.532 289.928C283.532 293.022 282.635 296.862 284.692 299.526C285.227 300.253 285.961 300.809 286.804 301.129C287.648 301.45 288.566 301.52 289.448 301.332C292.063 300.682 292.693 298.142 293.227 295.845C293.31 295.38 293.429 294.922 293.582 294.476C294.093 293.176 294.294 293.025 295.694 292.967C297.241 292.906 297.295 293.265 297.543 294.541C297.79 295.818 297.662 297.129 298.049 298.409C298.54 300.017 299.669 301.502 301.53 300.942C303.247 300.431 304.167 298.594 304.735 297.04C306.367 292.577 306.217 287.635 306.46 282.963C306.619 279.869 306.87 276.544 308.297 273.732C309.229 271.907 311.975 268.948 314.098 270.874C316.859 273.384 316.588 279.498 316.654 282.862C316.789 290.106 315.571 297.38 316.584 304.596C316.971 307.303 317.745 311.325 320.726 312.33C324.876 313.746 327.931 309.237 329.033 305.926C329.911 303.301 330.112 300.551 330.734 297.867C331.063 296.46 331.562 293.884 333.488 294.688C335.147 295.381 335.831 297.728 337.293 298.791C342.003 302.218 344.888 295.531 345.445 291.912C346.253 286.621 345.418 280.794 347.379 275.735C347.882 274.455 348.667 273.098 349.842 272.324C352.719 270.426 355.558 273.051 356.416 275.731C357.074 277.762 356.95 280.047 356.989 282.159C357.031 284.448 357.093 286.737 357.136 289.031C357.205 292.817 356.865 296.68 357.109 300.45C357.275 303.072 358.269 305.458 360.535 306.94C366.22 310.652 372.867 304.859 376.495 300.791C380.617 296.15 383.39 290.678 385.525 284.935C386.604 282.023 387.683 279.046 389.369 276.428C390.293 274.985 392.868 271.524 394.98 272.483C396.357 273.102 396.813 275.577 397.111 276.872C397.576 279.046 397.883 281.251 398.027 283.47C398.371 287.673 398.414 291.888 398.472 296.108C398.538 299.677 398.839 305.06 402.807 306.506C408.995 308.761 411.957 299.89 413.674 295.79C415.093 292.395 416.826 287.793 420.128 285.774C422.94 284.057 424.896 286.703 425.929 289.058C426.923 291.341 427.449 293.8 427.476 296.289C427.499 298.006 427.364 300.157 429.247 300.992C433.358 302.806 437.101 296.003 438.702 293.323C440.156 290.879 441.262 288.319 442.484 285.755C444.031 282.534 449.058 276.377 451.131 282.549C451.905 284.87 451.646 287.391 451.491 289.8C451.313 292.507 451.104 295.265 451.205 298.003C451.305 301.166 451.878 308.057 456.646 307.33C459.539 306.885 462.516 303.703 464.682 301.916C467.849 299.259 470.858 296.418 473.692 293.408C474.118 292.956 473.437 292.271 473.008 292.724C470.175 295.735 467.166 298.576 463.997 301.232C462.314 302.685 460.558 304.051 458.734 305.323C456.344 306.932 454.008 306.205 453.053 303.738C451.182 298.904 452.322 292.909 452.574 287.882C452.725 284.893 452.346 278.04 447.763 278.872C445.017 279.37 443.122 282.352 441.962 284.618C440.663 287.209 439.595 289.874 438.134 292.387C436.672 294.901 435.005 297.84 432.588 299.515C430.763 300.775 428.624 300.18 428.419 297.728C428.327 296.61 428.446 295.497 428.315 294.371C427.928 291.127 426.698 285.763 423.183 284.452C418.307 282.627 414.757 290.833 413.368 294.043C411.949 297.333 410.847 301.545 408.221 304.097C406.369 305.907 403.364 306.534 401.469 304.441C400.085 302.894 399.736 300.501 399.535 298.532C398.762 290.891 399.922 282.994 397.741 275.503C397.111 273.342 395.916 270.673 393.24 271.636C388.758 273.222 386.716 279.046 385.188 283.06C382.748 289.475 380.041 295.616 375.284 300.713C372.539 303.656 368.559 307.288 364.267 307.206C358.628 307.094 357.925 301.468 358.079 297.152C358.238 292.937 358.079 288.706 357.979 284.491C357.905 281.091 358.365 277.042 356.683 273.933C355.616 271.957 353.35 270.379 351.014 270.793C349.026 271.145 347.533 273.013 346.76 274.734C344.602 279.374 345.175 284.943 344.687 289.893C344.409 292.724 343.914 297.573 340.596 298.559C336.431 299.797 336.299 293.532 332.796 293.42C329.083 293.292 329.052 302.21 328.41 304.557C327.637 307.454 326.09 310.907 322.811 311.518C320.773 311.905 319.415 310.621 318.622 308.869C316.82 304.882 317.041 299.855 317.153 295.582C317.238 292.391 317.54 289.212 317.578 286.018C317.64 282.58 318.325 267.8 311.778 269.389C307.238 270.484 306.073 276.35 305.671 280.217C305.134 285.392 305.586 290.694 304.124 295.752C303.738 297.063 303.231 298.583 302.133 299.476C301.035 300.369 299.619 299.611 299.039 298.412C298.652 297.596 298.676 296.576 298.598 295.705C298.471 294.232 298.285 292.043 296.665 291.424C294.77 290.713 293.215 292.65 292.647 294.205C291.939 296.139 292.171 298.668 290.21 299.948C288.25 301.228 285.956 300.021 284.994 298.122C284.004 296.146 284.359 293.737 284.456 291.61C284.547 289.452 284.465 287.29 284.212 285.144C283.791 281.505 283.11 277.514 281.614 274.142C279.552 269.501 274.95 270.731 272.213 274.069C267.572 279.738 266.412 288.358 265.391 295.338C265.066 297.581 264.641 299.909 263.639 301.962C263.125 303.014 262.386 304.256 261.133 304.468C259.037 304.824 257.308 302.411 256.848 300.694C256.102 297.906 256.806 288.01 250.997 291.026C249.195 291.97 249.021 294.22 247.482 295.353C245.08 297.121 244.93 293.211 244.914 291.695C244.887 289.425 244.875 287.151 244.856 284.881C244.829 281.83 245.061 278.663 244.69 275.627C244.454 273.693 243.862 271.435 241.863 270.634C236.449 268.473 232.408 277.209 230.957 280.875C227.864 288.644 225.408 296.947 221.073 304.132C218.695 308.076 214.638 311.035 210.562 307.342C207.646 304.7 206.575 300.826 206.498 297.024C206.401 292.09 207.878 282.108 201.961 279.544C196.803 277.309 191.338 284.421 189.157 288.079C185.433 294.329 184.466 301.962 180.236 307.86C179.872 308.367 180.707 308.85 181.067 308.347V308.409Z" fill="#9192FF"/>
<path d="M469.361 408.081H396.306C393.504 408.081 391.233 410.353 391.233 413.155V461.255C391.233 464.057 393.504 466.329 396.306 466.329H469.361C472.163 466.329 474.435 464.057 474.435 461.255V413.155C474.435 410.353 472.163 408.081 469.361 408.081Z" fill="#E0E0FF"/>
<path d="M472.598 433.319H393.066V434.239H472.598V433.319Z" fill="#B7B7FF"/>
<path d="M432.832 441.765C431.061 441.763 429.364 441.058 428.112 439.806C426.86 438.554 426.155 436.857 426.153 435.086V433.319H439.511V435.086C439.508 436.857 438.804 438.554 437.552 439.806C436.3 441.058 434.603 441.763 432.832 441.765ZM427.074 434.239V435.086C427.074 436.613 427.68 438.078 428.76 439.158C429.84 440.237 431.305 440.844 432.832 440.844C434.359 440.844 435.824 440.237 436.904 439.158C437.983 438.078 438.59 436.613 438.59 435.086V434.239H427.074Z" fill="#B7B7FF"/>
<path d="M448.571 411.055H447.651V399.11C447.65 398.336 447.342 397.594 446.795 397.046C446.247 396.499 445.505 396.191 444.731 396.19H420.937C420.163 396.191 419.42 396.499 418.873 397.046C418.326 397.594 418.018 398.336 418.017 399.11V411.055H417.096V399.11C417.097 398.092 417.502 397.115 418.222 396.396C418.942 395.676 419.918 395.271 420.937 395.27H444.731C445.749 395.271 446.726 395.676 447.446 396.396C448.165 397.115 448.57 398.092 448.571 399.11V411.055Z" fill="#B7B7FF"/>
<path d="M419.827 408.081H415.337V412.919H419.827V408.081Z" fill="#B7B7FF"/>
<path d="M450.339 408.081H445.849V412.919H450.339V408.081Z" fill="#B7B7FF"/>
<path d="M237.826 416.895H178.522V466.329H237.826V416.895Z" fill="#E0E0FF"/>
<path d="M242.196 413.399H174.156V423.782H242.196V413.399Z" fill="#B7B7FF"/>
<path opacity="0.6" d="M237.829 466.329H178.522V423.624C178.522 423.624 202.541 459.724 237.829 466.329Z" fill="#B7B7FF"/>
<path d="M567.112 43.8783C559.244 43.8781 551.583 46.4017 545.256 51.0782C538.929 55.7546 534.269 62.3373 531.96 69.8589C529.652 77.3804 529.817 85.4441 532.431 92.8649C535.045 100.286 539.971 106.672 546.484 111.086L545.073 128.024L558.875 116.477C563.92 117.635 569.154 117.715 574.232 116.71C579.311 115.706 584.12 113.641 588.345 110.649C592.57 107.658 596.116 103.808 598.75 99.3514C601.384 94.8948 603.047 89.9322 603.631 84.7884C604.215 79.6445 603.705 74.4354 602.137 69.502C600.568 64.5685 597.975 60.0221 594.527 56.1601C591.08 52.2981 586.856 49.2078 582.131 47.0913C577.407 44.9748 572.289 43.8799 567.112 43.8783Z" fill="white"/>
<path d="M544.493 129.138L545.978 111.326C538.331 106.065 532.918 98.144 530.796 89.108C528.674 80.072 529.995 70.5695 534.501 62.4546C539.006 54.3398 546.374 48.1949 555.166 45.2189C563.958 42.2429 573.543 42.6493 582.051 46.3589C590.56 50.0686 597.381 56.8151 601.183 65.2823C604.986 73.7494 605.497 83.3297 602.618 92.1536C599.739 100.978 593.675 108.412 585.61 113.007C577.545 117.601 568.057 119.026 558.999 117.003L544.493 129.138ZM567.112 44.362C559.346 44.3595 551.785 46.8484 545.539 51.4628C539.293 56.0772 534.692 62.5738 532.413 69.9973C530.133 77.4209 530.296 85.3799 532.876 92.7043C535.456 100.029 540.318 106.332 546.747 110.688L546.979 110.846L545.641 126.911L558.736 115.951L558.968 116.005C563.947 117.149 569.113 117.228 574.125 116.237C579.137 115.246 583.884 113.207 588.054 110.255C592.224 107.302 595.723 103.502 598.323 99.1039C600.922 94.7053 602.563 89.8072 603.139 84.7304C603.714 79.6535 603.211 74.5124 601.662 69.6435C600.113 64.7746 597.553 60.2879 594.15 56.4769C590.746 52.666 586.577 49.6169 581.913 47.5291C577.25 45.4414 572.198 44.3621 567.089 44.362H567.112Z" fill="#5254CF"/>
<path d="M573.369 88.3821H562.437V99.7284H573.369V88.3821Z" fill="white"/>
<path d="M573.853 100.212H561.953V87.8988H573.853V100.212ZM562.92 99.2451H572.886V88.8656H562.92V99.2451Z" fill="#5254CF"/>
<path d="M576.772 80.5433C576.774 79.1824 576.463 77.8393 575.863 76.6178C575.263 75.3963 574.39 74.3292 573.312 73.4991C572.233 72.669 570.978 72.0982 569.644 71.8308C568.31 71.5634 566.932 71.6065 565.617 71.957C564.302 72.3074 563.085 72.9556 562.06 73.8515C561.036 74.7475 560.231 75.8671 559.709 77.1238C559.187 78.3804 558.96 79.7404 559.048 81.0985C559.135 82.4566 559.534 83.7764 560.213 84.9558C561.626 87.3168 562.393 90.0083 562.436 92.7598V94.7784H573.369V92.6631C573.411 89.9477 574.173 87.2922 575.577 84.9674C576.361 83.6248 576.773 82.0979 576.772 80.5433Z" fill="white"/>
<path d="M573.852 95.2616H561.953V92.7595C561.914 90.0913 561.168 87.4811 559.791 85.1953C558.958 83.7456 558.53 82.099 558.55 80.4271C558.606 78.0541 559.551 75.7886 561.198 74.0796C562.846 72.3706 565.075 71.3429 567.445 71.2C569.123 71.1192 570.792 71.4923 572.277 72.2803C573.761 73.0682 575.006 74.2418 575.879 75.6774C576.753 77.1131 577.223 78.7577 577.241 80.4381C577.258 82.1185 576.823 83.7726 575.979 85.2263C574.614 87.4751 573.874 90.0478 573.837 92.6783L573.852 95.2616ZM562.92 94.2948H572.886V92.6629C572.922 89.8622 573.707 87.1222 575.16 84.7274C576.102 83.0997 576.471 81.2022 576.205 79.3399C575.939 77.4777 575.055 75.7589 573.694 74.4601C572.877 73.6694 571.906 73.0554 570.842 72.6562C569.777 72.257 568.642 72.0812 567.506 72.1398C565.381 72.2688 563.38 73.1905 561.901 74.7228C560.422 76.255 559.571 78.2864 559.517 80.4155C559.497 81.9141 559.882 83.3903 560.631 84.6887C562.093 87.1212 562.883 89.8984 562.92 92.7363V94.2948Z" fill="#5254CF"/>
<path d="M565.878 79.5149C565.194 80.4933 564.041 80.8684 563.306 80.3541C562.572 79.8398 562.533 78.6255 563.221 77.6471C563.91 76.6687 565.058 76.2936 565.793 76.8079C566.528 77.3222 566.566 78.5211 565.878 79.5149Z" fill="white"/>
<path d="M564.064 81.0618C563.694 81.0654 563.331 80.9531 563.028 80.7408C562.786 80.5622 562.59 80.329 562.456 80.0602C562.321 79.7913 562.252 79.4945 562.254 79.194C562.255 78.5424 562.456 77.9067 562.83 77.3733C563.205 76.8399 563.734 76.4346 564.347 76.2124C564.629 76.1012 564.934 76.0616 565.235 76.0971C565.537 76.1327 565.824 76.2423 566.073 76.4162C566.322 76.5901 566.523 76.8228 566.66 77.0936C566.797 77.3644 566.864 77.6648 566.856 77.9681C566.864 78.62 566.662 79.2572 566.28 79.7857C565.912 80.3249 565.381 80.7317 564.764 80.9458C564.539 81.0214 564.302 81.0605 564.064 81.0618ZM565.031 77.0516C564.9 77.054 564.769 77.0761 564.644 77.1173C564.227 77.2699 563.869 77.55 563.62 77.9178C563.362 78.2772 563.227 78.7095 563.233 79.1514C563.23 79.3059 563.263 79.4589 563.33 79.5979C563.398 79.737 563.497 79.8583 563.62 79.9519C563.749 80.0322 563.896 80.0807 564.048 80.0935C564.2 80.1063 564.352 80.0829 564.494 80.0254C564.911 79.876 565.27 79.5968 565.518 79.2288C565.774 78.8684 565.909 78.4368 565.905 77.9952C565.908 77.8407 565.875 77.6877 565.807 77.5487C565.74 77.4096 565.641 77.2883 565.518 77.1946C565.375 77.0969 565.205 77.0456 565.031 77.0477V77.0516Z" fill="#5254CF"/>
<path d="M550.881 65.0126L550.28 65.7698L555.786 70.1416L556.387 69.3844L550.881 65.0126Z" fill="#5254CF"/>
<path d="M567.544 55.817L566.578 55.8479L566.88 65.2829L567.846 65.252L567.544 55.817Z" fill="#5254CF"/>
<path d="M583.801 63.0788L578.097 68.6283L578.771 69.3213L584.475 63.7718L583.801 63.0788Z" fill="#5254CF"/>
<path d="M105.738 90.3427C105.738 83.5848 103.619 76.9972 99.6795 71.5062C95.7403 66.0151 90.1791 61.8969 83.7779 59.7305C77.3767 57.5642 70.4575 57.4587 63.9932 59.429C57.5289 61.3992 51.8448 65.3461 47.7401 70.7145C43.6354 76.0829 41.3167 82.6029 41.1099 89.3576C40.9031 96.1123 42.8187 102.762 46.5873 108.371C50.3559 113.981 55.788 118.268 62.1196 120.63C68.4512 122.992 75.364 123.31 81.8857 121.539L93.1005 130.929L91.9404 116.829C96.2037 113.852 99.6848 109.889 102.087 105.278C104.49 100.666 105.742 95.5425 105.738 90.3427Z" fill="white"/>
<path d="M93.6843 132.023L81.7656 122.054C73.8397 124.146 65.4176 123.199 58.1545 119.398C50.8914 115.597 45.3125 109.217 42.5143 101.511C39.7161 93.8062 39.9008 85.333 43.0323 77.7571C46.1637 70.1811 52.0153 64.0502 59.4371 60.5693C66.859 57.0883 75.3144 56.5091 83.1416 58.9453C90.9689 61.3816 97.6019 66.6571 101.737 73.7353C105.873 80.8134 107.211 89.1822 105.49 97.1971C103.769 105.212 99.112 112.293 92.4352 117.049L93.6843 132.023ZM82.0015 120.986L92.528 129.788L91.4259 116.566L91.654 116.407C98.1712 111.841 102.739 104.996 104.455 97.2251C106.171 89.4544 104.911 81.3226 100.923 74.4358C96.9357 67.5489 90.5105 62.4078 82.9168 60.0277C75.323 57.6477 67.1128 58.2017 59.9077 61.5804C52.7025 64.9591 47.0263 70.9169 44.0001 78.277C40.9739 85.6372 40.8176 93.8646 43.5622 101.334C46.3068 108.804 51.7527 114.973 58.8244 118.623C65.896 122.273 74.0793 123.138 81.7579 121.048L82.0015 120.986Z" fill="#5254CF"/>
<path d="M72.9834 100.405L63.8182 91.2399L64.5027 90.5554L72.6663 98.7228L82.1332 77.1633L83.0188 77.55L72.9834 100.405Z" fill="#5254CF"/>
<path d="M249.242 132.696L240.571 137.77L148.393 191.787C145.555 193.45 142.237 193.055 140.918 190.901C139.603 188.747 140.771 185.615 143.548 183.851L233.506 126.633L242.161 121.126L249.242 132.696Z" fill="#5254CF"/>
<path opacity="0.6" d="M249.242 132.696L240.571 137.77C238.861 136.132 237.371 134.278 236.14 132.255C235.054 130.486 234.17 128.6 233.506 126.633L242.161 121.126L249.242 132.696Z" fill="#1B1B43"/>
<path d="M237.06 135.589C236.57 135.887 236.003 136.034 235.43 136.01C234.856 135.986 234.303 135.793 233.84 135.454C233.377 135.116 233.024 134.648 232.827 134.109C232.63 133.571 232.597 132.986 232.732 132.428C232.867 131.871 233.164 131.366 233.586 130.978C234.008 130.589 234.536 130.335 235.103 130.246C235.67 130.158 236.25 130.239 236.77 130.481C237.291 130.722 237.728 131.112 238.027 131.602C238.225 131.927 238.358 132.288 238.417 132.664C238.476 133.041 238.46 133.425 238.371 133.796C238.281 134.166 238.119 134.515 237.894 134.823C237.669 135.131 237.385 135.391 237.06 135.589Z" fill="white"/>
<path d="M280.748 151.406C306.091 151.406 326.635 130.861 326.635 105.518C326.635 80.1745 306.091 59.6298 280.748 59.6298C255.404 59.6298 234.86 80.1745 234.86 105.518C234.86 130.861 255.404 151.406 280.748 151.406Z" fill="#5254CF"/>
<path d="M280.747 142.739C301.304 142.739 317.969 126.075 317.969 105.518C317.969 84.9607 301.304 68.296 280.747 68.296C260.19 68.296 243.526 84.9607 243.526 105.518C243.526 126.075 260.19 142.739 280.747 142.739Z" fill="white"/>
<mask id="mask0_42_23433" style="mask-type:luminance" maskUnits="userSpaceOnUse" x="243" y="68" width="75" height="75">
<path d="M280.747 142.739C301.304 142.739 317.969 126.075 317.969 105.518C317.969 84.9607 301.304 68.296 280.747 68.296C260.19 68.296 243.526 84.9607 243.526 105.518C243.526 126.075 260.19 142.739 280.747 142.739Z" fill="white"/>
</mask>
<g mask="url(#mask0_42_23433)">
<path d="M265.615 118.098H253.948V189.706H265.615V118.098Z" fill="#B7B7FF"/>
<path d="M286.583 108.654H274.916V190.19H286.583V108.654Z" fill="#E0E0FF"/>
<path d="M307.547 98.5145H295.88V188.902H307.547V98.5145Z" fill="#B7B7FF"/>
<path d="M294.519 84.8234L241.059 101.926L241.501 103.307L294.961 86.2046L294.519 84.8234Z" fill="#B7B7FF"/>
<path d="M291.185 91.7545L290.025 90.9115L293.544 85.9692L288.42 84.2251L288.888 82.8523L294.518 84.7859C294.675 84.8344 294.817 84.9209 294.933 85.0376C295.048 85.1543 295.133 85.2976 295.18 85.4549C295.23 85.6188 295.237 85.7926 295.202 85.9602C295.167 86.1279 295.09 86.284 294.979 86.414L291.185 91.7545ZM293.845 85.5207C293.844 85.5309 293.844 85.5414 293.845 85.5516V85.5207Z" fill="#B7B7FF"/>
</g>
<path d="M188.929 447.097C183.086 447.186 174.717 447.322 169.299 447.399C169.357 444.777 169.458 442.167 169.574 439.781C169.833 433.825 170.173 429.223 170.173 429.223L186.906 429.107C186.906 429.107 186.829 430.77 186.906 433.264C187.011 436.958 187.448 442.468 188.929 447.097Z" fill="#FFBC96"/>
<path d="M195.411 455.284C192.201 454.29 190.19 451.03 188.933 447.097L169.3 447.399C169.153 453.563 169.207 459.774 169.798 463.254C169.919 463.987 170.296 464.653 170.863 465.133C171.43 465.613 172.149 465.875 172.892 465.873H201.641C203.988 465.873 206.011 463.912 205.767 461.58C205.477 458.792 202.182 457.38 195.411 455.284Z" fill="#1B1B43"/>
<path d="M186.906 433.264L169.574 439.781C169.833 433.825 170.173 429.223 170.173 429.223L186.906 429.107C186.906 429.107 186.829 430.77 186.906 433.264Z" fill="#D28572"/>
<path d="M178.205 465.621C177.59 462.709 176.372 460.683 174.578 459.6C173.073 458.754 171.305 458.503 169.624 458.896L169.357 457.968C171.291 457.489 173.336 457.774 175.065 458.765C177.103 459.991 178.476 462.245 179.149 465.424L178.205 465.621Z" fill="#656590"/>
<path d="M102.981 425.975C101.69 429.101 100.624 432.315 99.7907 435.592C99.1089 438.185 98.6776 440.837 98.5029 443.512L80.0255 436.842C82.3961 431.041 84.9291 425.317 86.2903 422.32L86.329 422.243C86.9207 420.928 87.2803 420.155 87.2803 420.155L102.981 425.975Z" fill="#FFBC96"/>
<path d="M101.662 453.47C99.0133 451.401 98.294 447.627 98.5028 443.52L80.0332 436.841C77.7129 442.557 75.5705 448.381 74.8899 451.85C74.7438 452.576 74.8604 453.33 75.2188 453.978C75.5772 454.626 76.1541 455.126 76.8467 455.388L103.743 465.567C105.936 466.398 108.523 465.281 109.118 463.014C109.838 460.304 107.258 457.821 101.662 453.47Z" fill="#1B1B43"/>
<path d="M102.981 425.975C101.69 429.101 100.624 432.315 99.7906 435.592L85.7798 423.79L86.3096 422.32L86.3483 422.243C86.9399 420.928 87.2996 420.155 87.2996 420.155L102.981 425.975Z" fill="#D28572"/>
<path d="M81.1395 456.885L80.2848 456.437C83.8852 449.534 77.5391 446.111 77.2684 445.972L77.7132 445.114C77.7982 445.152 85.1923 449.131 81.1395 456.885Z" fill="#656590"/>
<path d="M195.124 432.491L164.353 434.908L157.903 325.011L148.37 288.884L135.899 241.634L135.253 239.171L132.244 227.782L131.799 226.081L137.689 225.547L169.504 222.697L171.438 231.398L190.495 317.57C191.117 320.376 191.479 323.233 191.578 326.105L195.124 432.491Z" fill="#5254CF"/>
<path d="M150.818 264.431L148.37 288.884L144.406 328.464C143.954 333.022 142.937 337.506 141.378 341.814L108.596 432.491L81.0426 421.856L106.663 329.044C113.264 290.836 112.173 261.512 113.875 242.911C113.983 241.75 114.099 240.64 114.223 239.569C114.911 233.873 115.971 229.36 117.781 226.081L132.244 227.782L142.434 228.981L144.646 238.351L145.095 240.242L150.818 264.431Z" fill="#5254CF"/>
<path opacity="0.6" d="M171.426 231.398L171.759 235.103C171.759 235.103 128.578 246.704 113.875 242.911C113.983 241.75 114.099 240.641 114.223 239.569C114.911 233.873 115.971 229.36 117.781 226.081L132.244 227.782L131.799 226.081L137.689 225.547L169.504 222.697L171.426 231.398Z" fill="#1B1B43"/>
<path d="M157.435 325.537L142.999 268.515L131.169 264.729L131.463 263.809L143.803 267.757L143.869 268.016L158.371 325.301L157.435 325.537Z" fill="#1B1B43"/>
<path d="M179.582 328.046L179.246 327.141C186.829 324.295 190.956 321.654 190.994 321.631L191.52 322.439C191.354 322.551 187.278 325.161 179.582 328.046Z" fill="#1B1B43"/>
<path d="M142.627 337.742C137.711 337.195 132.839 336.302 128.048 335.069L128.299 334.137C133.04 335.353 137.86 336.237 142.724 336.782L142.627 337.742Z" fill="#1B1B43"/>
<path d="M83.6291 413.456L83.2954 414.363L111.334 424.674L111.667 423.766L83.6291 413.456Z" fill="#1B1B43"/>
<path d="M194.607 424.279L163.912 426.442L163.98 427.406L194.675 425.243L194.607 424.279Z" fill="#1B1B43"/>
<path d="M129.626 156.15L116.547 161.414C114.666 162.17 112.953 163.292 111.506 164.714C110.06 166.135 108.909 167.829 108.121 169.697L97.1455 195.967C96.074 198.532 95.8473 201.372 96.4981 204.074C97.1489 206.777 98.6435 209.202 100.765 210.999C102.529 212.498 104.658 213.503 106.937 213.911C109.216 214.318 111.562 214.114 113.736 213.319L123.017 209.904L129.626 156.15Z" fill="#FFB147"/>
<path d="M220.068 132.282C217.624 133.489 214.804 138.632 215.876 140.481C216.75 141.997 218.792 139.947 219.464 139.243C220.702 137.952 223.896 134.498 222.133 132.537C221.572 131.911 220.837 131.899 220.068 132.282Z" fill="#FFBC96"/>
<path d="M214.17 134.139C212.144 135.96 210.814 141.672 212.341 143.165C213.594 144.39 215.006 141.865 215.466 141.007C216.309 139.429 218.455 135.245 216.239 133.829C215.501 133.377 214.793 133.566 214.17 134.139Z" fill="#FFBC96"/>
<path d="M210.226 137.008C208.176 138.767 206.745 144.17 208.215 145.543C209.429 146.668 210.883 144.259 211.359 143.439C212.225 141.938 214.453 137.955 212.272 136.671C211.575 136.261 210.872 136.455 210.226 137.008Z" fill="#FFBC96"/>
<path d="M206.482 138.346C204.433 140.106 203.002 145.508 204.471 146.881C205.686 148.002 207.144 145.597 207.615 144.777C208.485 143.277 210.709 139.29 208.528 138.01C207.836 137.6 207.128 137.793 206.482 138.346Z" fill="#FFBC96"/>
<path d="M129.626 156.301L116.01 179.709C116.01 179.709 119.552 218.381 116.976 223.13C114.401 227.879 108.596 231.611 112.143 234.345C115.689 237.079 143.722 241.808 174.017 234.685C182.394 232.311 176.593 227.898 174.659 225.864C172.726 223.83 170.15 172.605 170.15 172.605L152.748 156.75L139.874 153.269L129.626 156.301Z" fill="#FFB147"/>
<path opacity="0.2" d="M152.466 156.712C150.049 160.942 121.598 165.293 129.626 156.151L137.84 154.418L152.466 156.712Z" fill="#1B1B43"/>
<path d="M189.324 184.269L178.109 167.617C176.821 165.524 175.116 163.719 173.1 162.313C171.084 160.908 168.801 159.933 166.391 159.449L152.76 156.711L160.803 186.926C160.803 186.926 173.372 204.571 184.733 208.678C194.927 212.368 208.447 206.308 215.903 166.46L198.999 164.14L189.324 184.269Z" fill="#FFB147"/>
<path d="M225.176 142.774C223.467 142.557 217.604 151.397 217.604 151.397L208.126 154.623C206.407 155.208 204.822 156.13 203.464 157.334C202.105 158.538 201 160.002 200.214 161.638L198.999 164.155L215.903 166.476C216.181 164.987 216.456 163.467 216.715 161.885C222.516 156.634 228.962 143.257 225.176 142.774Z" fill="#FFBC96"/>
<path d="M155.068 119.347L158.483 124.103C158.617 124.294 158.705 124.514 158.739 124.744C158.773 124.975 158.753 125.211 158.68 125.432C158.606 125.654 158.482 125.855 158.317 126.02C158.152 126.184 157.95 126.308 157.729 126.381L154.07 127.793L151.499 122.054L155.068 119.347Z" fill="#D28572"/>
<path d="M132.901 145.411C133.425 139.607 133.596 133.776 133.416 127.951L149.035 129.084C148.908 130.863 148.879 132.647 148.95 134.429C149.069 137.289 149.359 140.139 149.82 142.964C150.064 144.51 150.342 146.011 150.644 147.461L132.901 145.411Z" fill="#FFBC96"/>
<path d="M149.82 142.963C145.832 141.268 142.584 138.199 140.667 134.312L148.95 134.428C149.069 137.288 149.359 140.138 149.82 142.963Z" fill="#D28572"/>
<path d="M132.898 145.407L129.626 156.15C137.163 157.964 144.882 158.042 152.748 156.711L150.644 147.457L132.898 145.407Z" fill="#FFF5E8"/>
<path d="M154.681 111.353L156.298 132.971C156.445 133.895 155.876 134.742 155.08 135.488C154.388 136.108 153.581 136.584 152.705 136.891C151.829 137.198 150.901 137.328 149.975 137.275L138.903 136.815L131.01 127.951L137.132 109.099L148.25 108.936L154.681 111.353Z" fill="#FFBC96"/>
<path d="M136.513 124.204C136.513 124.204 139.414 133.268 133.25 137.863C126.602 135.685 114.277 115.503 129.626 109.099C129.626 109.099 133.853 98.344 145.334 102.331C155.466 105.85 158.143 111.999 158.143 111.999C158.143 111.999 151.015 117.316 142.674 112.363C142.674 112.363 143.521 123.117 136.513 124.204Z" fill="#1B1B43"/>
<path d="M140.601 120.507C142.407 122.742 142.229 125.878 140.214 127.514C138.2 129.15 135.086 128.674 133.28 126.427C131.474 124.18 131.656 121.056 133.667 119.42C135.678 117.784 138.799 118.268 140.601 120.507Z" fill="#FFBC96"/>
<path d="M138.373 125.704C138.331 125.545 137.368 121.86 134.773 122.424L134.618 121.713C137.244 121.144 138.683 123.96 139.077 125.526L138.373 125.704Z" fill="#1B1B43"/>
<path opacity="0.4" d="M152.167 125.615C152.576 123.884 151.503 122.149 149.772 121.74C148.04 121.332 146.305 122.404 145.896 124.136C145.488 125.867 146.56 127.602 148.292 128.011C150.023 128.419 151.758 127.347 152.167 125.615Z" fill="#FE5B52"/>
<path d="M115.654 236.321C112.722 235.625 111.063 234.535 110.584 232.995C109.811 230.486 112.394 227.608 114.679 225.072C115.035 224.685 115.383 224.298 115.696 223.911C116.324 223.199 116.758 222.337 116.957 221.409C119.076 211.355 115.565 180.062 115.526 179.748L116.489 179.64C116.636 180.932 120.055 211.405 117.905 221.607C117.67 222.696 117.162 223.708 116.427 224.546C116.11 224.932 115.758 225.319 115.399 225.706C113.388 227.937 110.889 230.71 111.504 232.694C111.891 233.854 113.341 234.767 115.878 235.37L115.654 236.321Z" fill="#1B1B43"/>
<path d="M171.782 235.586L171.74 234.619C175.042 234.472 177.061 233.687 177.579 232.342C178.097 230.996 177.15 228.966 174.965 226.8C174.397 226.232 174.006 225.512 173.84 224.727C172.099 216.915 170.251 191.083 170.231 190.827L171.194 190.758C171.194 191.017 173.058 216.776 174.783 224.518C174.91 225.122 175.21 225.675 175.645 226.112C178.151 228.598 179.161 230.934 178.484 232.686C177.807 234.438 175.549 235.42 171.782 235.586Z" fill="#1B1B43"/>
<path d="M187.583 188.588L186.713 188.163L198.721 163.63L215.968 165.981L215.841 166.94L199.282 164.681L187.583 188.588Z" fill="#1B1B43"/>
<path d="M478.395 128.272C472.676 124.792 471.384 114.899 476.705 111.918C482.026 108.936 485.406 111.597 485.406 111.597C485.406 111.597 503.238 105.092 509.978 121.651C515.052 134.139 511.022 140.666 515.454 146.95C520.505 154.109 528.603 160.563 518.034 173.131L493.38 167.106L486.934 136.749L478.395 128.272Z" fill="#1B1B43"/>
<path d="M563.717 406.678L545.587 414.648C545.587 414.648 548.19 421.381 550.421 429.208L569.061 423.253L563.717 406.678Z" fill="#FFBC96"/>
<path d="M569.061 423.253L550.421 429.208C552.973 438.176 555.035 448.586 552.123 451.982C548.333 456.398 545.03 460.049 544.237 463.119C544.131 463.521 544.142 463.945 544.27 464.34C544.398 464.736 544.638 465.086 544.96 465.348C545.282 465.611 545.673 465.776 546.086 465.822C546.499 465.868 546.916 465.795 547.289 465.61L571.373 453.463C573.295 452.493 574.773 450.824 575.501 448.798C576.23 446.773 576.155 444.545 575.291 442.573L569.061 423.253Z" fill="#1B1B43"/>
<path d="M571.031 429.522L552.012 435.472L552.301 436.394L571.32 430.445L571.031 429.522Z" fill="#656590"/>
<path d="M548.588 456.812L548.387 455.864C553.004 454.886 555.688 453.192 556.373 450.837C557.494 446.95 552.869 442.403 552.823 442.356L553.495 441.664C553.704 441.865 558.581 446.668 557.301 451.108C556.512 453.83 553.581 455.752 548.588 456.812Z" fill="#656590"/>
<path d="M493.701 424.273L472.757 426.207C473.067 431.17 473.034 436.149 472.656 441.107L492.804 440.809L493.701 424.273Z" fill="#FFBC96"/>
<path d="M472.656 441.096C472.088 447.701 470.587 454.329 466.956 455.845C459.222 459.066 453.096 461.321 453.742 465.834H483.476C485.629 465.833 487.7 465.008 489.263 463.528C490.826 462.047 491.762 460.025 491.88 457.875L492.804 440.798L472.656 441.096Z" fill="#1B1B43"/>
<path d="M472.727 445.664L472.711 446.63L492.048 446.951L492.064 445.984L472.727 445.664Z" fill="#656590"/>
<path d="M466.461 459.515C464.95 459.487 463.446 459.296 461.975 458.946L462.188 458.003C466.442 458.95 469.307 458.656 470.51 457.16C472.115 455.168 470.479 451.583 470.463 451.548L471.337 451.15C471.415 451.32 473.236 455.323 471.26 457.778C470.328 458.931 468.719 459.515 466.461 459.515Z" fill="#656590"/>
<path d="M493.427 429.235C493.2 429.311 492.969 429.375 492.734 429.425C488.546 430.391 474.69 429.425 474.69 429.425C474.08 429.294 473.48 429.124 472.892 428.914C459.937 424.196 460.819 401.546 462.764 381.735C464.55 363.559 456.963 270.87 462.203 239.376L494.993 232.199L495.186 237.721L495.573 248.994L496.269 268.937C496.269 268.937 497.507 288.234 499.2 312.416C501.733 348.67 505.291 395.916 507.225 405.584C510.319 420.987 498.667 427.708 493.427 429.235Z" fill="#5254CF"/>
<path d="M567.63 409.153C566.919 409.982 566.119 410.73 565.244 411.384C560.835 414.78 554.888 416.025 549.671 417.44C548.734 417.693 547.781 417.877 546.817 417.989C541.956 418.589 536.646 417.475 534.376 413.349C522.732 392.137 509.626 350.031 499.224 312.415C491.621 284.959 485.484 259.861 482.428 247.06C481.083 241.406 480.34 238.166 480.34 238.166L495.198 237.721L520.462 236.948C521.151 240.351 521.932 243.939 522.813 247.66C531.433 284.467 548.422 335.058 555.073 354.425C559.068 366.026 565.128 376.359 567.769 388.502C569.177 394.941 572.452 403.584 567.63 409.153Z" fill="#5254CF"/>
<path opacity="0.6" d="M522.802 247.667C513.814 249.19 504.677 249.636 495.584 248.994C491.161 248.668 486.766 248.022 482.436 247.06C469.199 244.144 462.222 239.368 462.222 239.368L495.012 232.191L495.206 237.713L520.47 236.94C521.139 240.358 521.92 243.947 522.802 247.667Z" fill="#1B1B43"/>
<path d="M498.744 312.547L488.631 276.725L478.229 272.939L478.561 272.034L489.428 275.983L489.494 276.222L499.676 312.284L498.744 312.547Z" fill="#1B1B43"/>
<path d="M560.832 413.558L559.992 413.074C564.873 404.605 555.089 378.494 542.706 345.437C530.683 313.34 515.717 273.396 510.303 237.756L511.262 237.609C516.676 273.148 531.604 313.046 543.611 345.116C556.087 378.393 565.936 404.69 560.832 413.558Z" fill="#1B1B43"/>
<path d="M469.23 208.93C468.069 217.097 466.31 227.774 466.31 227.774H447.214L451.854 202.22L453.015 195.87C453.015 195.87 469.45 199.737 470.177 199.737C470.455 199.737 469.953 203.852 469.23 208.93Z" fill="#FFBC96"/>
<path d="M469.23 208.93L468.359 210.863L451.866 202.232L453.026 195.882C453.026 195.882 469.462 199.749 470.189 199.749C470.455 199.738 469.953 203.852 469.23 208.93Z" fill="#D28572"/>
<path d="M465.103 203.118C465.103 203.118 468.244 221.487 462.203 239.376C462.203 239.376 492.174 248.557 520.45 236.955L513.923 195.627L516.1 174.601L472.838 175.08L458.092 179.914L465.103 203.118Z" fill="#1B1B43"/>
<path d="M528.324 172.246C527.382 169.555 525.818 167.125 523.759 165.153C521.7 163.182 519.204 161.724 516.475 160.9L508.354 158.448C505.082 163.212 499.243 169.276 490.72 169.276C480.704 169.276 474.42 163.525 470.955 158.834L465.343 160.203C462.389 160.924 459.694 162.451 457.557 164.614C455.42 166.778 453.927 169.492 453.243 172.455L446.974 199.656L465.104 203.137L465.583 182.355L512.716 180.158L513.923 195.627C513.923 195.627 527.539 189.664 536.565 195.789L528.324 172.246Z" fill="#1B1B43"/>
<path d="M548.971 170.49C546.361 175.595 542.849 197.727 541.237 214.963C540.707 220.628 539.09 225.095 536.855 228.351C533.568 233.165 528.912 235.35 524.383 234.867C522.592 234.679 520.863 234.098 519.321 233.165C511.537 228.556 512.531 208.852 513.405 199.985C513.675 197.317 513.923 195.627 513.923 195.627C518.517 193.094 525.768 192.726 525.768 192.726C525.865 191.729 525.981 190.723 526.097 189.691C527.083 180.796 528.579 170.683 529.879 163.966C531.325 156.472 534.225 159.256 534.225 159.256C535.679 156.588 537.853 158.869 537.853 158.869C539.786 154.615 542.203 158.626 542.203 158.626C545.22 154.279 546.875 160.803 546.875 160.803C546.875 160.803 556.241 153.068 557.835 155.319C558.639 156.472 552.676 163.239 548.971 170.49Z" fill="#FFBC96"/>
<path d="M474.771 222.898H434.166V227.774H474.771V222.898Z" fill="white"/>
<path d="M451.553 227.817H409.672C408.685 227.818 407.718 227.535 406.887 227.002C406.057 226.469 405.396 225.709 404.985 224.812L388.673 189.401C388.548 189.13 388.494 188.833 388.514 188.536C388.535 188.239 388.63 187.952 388.79 187.701C388.951 187.45 389.172 187.244 389.433 187.101C389.695 186.958 389.988 186.883 390.285 186.883H429.572C430.506 186.884 431.421 187.152 432.207 187.655C432.994 188.159 433.62 188.877 434.012 189.726L451.553 227.817Z" fill="#5254CF"/>
<path d="M465.343 227.774C464.875 229.6 464.16 231.352 463.216 232.984C460.973 236.773 457.377 239.376 451.839 240.068C449.717 240.324 447.572 240.334 445.447 240.099C426.254 238.193 420.697 227.693 420.697 227.693C420.697 227.693 418.558 223.238 423.091 224.263C423.091 224.263 423.945 221.432 427.441 224.387C427.441 224.387 427.027 220.879 430.469 224.089C430.469 224.089 429.986 220.52 433.725 223.606C437.465 226.692 440.381 227.589 444.913 227.774C449.445 227.96 465.343 227.774 465.343 227.774Z" fill="#FFBC96"/>
<path d="M464.39 182.283L463.425 182.339L464.635 203.124L465.6 203.068L464.39 182.283Z" fill="#5254CF"/>
<path d="M488.635 176.774C486.618 176.778 484.606 176.558 482.637 176.117C476.871 174.817 473.553 172.106 473.414 171.99L474.029 171.244C474.16 171.352 487.224 181.836 506.022 170.56L506.517 171.387C499.626 175.525 493.512 176.774 488.635 176.774Z" fill="#5254CF"/>
<path d="M513.676 186.097L512.712 186.171L513.437 195.68L514.401 195.606L513.676 186.097Z" fill="#5254CF"/>
<path d="M498.86 200.383C497.362 200.387 495.915 199.836 494.799 198.836C493.683 197.837 492.976 196.459 492.816 194.969L492.042 188.082L505.338 187.204L504.951 194.614C504.864 196.151 504.199 197.599 503.09 198.667C501.98 199.735 500.508 200.344 498.968 200.372L498.86 200.383ZM493.113 188.987L493.775 194.869C493.923 196.142 494.542 197.313 495.512 198.151C496.481 198.989 497.729 199.434 499.01 199.396C500.291 199.359 501.511 198.843 502.43 197.949C503.349 197.056 503.899 195.85 503.972 194.571L504.309 188.248L493.113 188.987Z" fill="#5254CF"/>
<path d="M525.234 192.714L521.76 217.005L522.717 217.141L526.191 192.851L525.234 192.714Z" fill="#D28572"/>
<path d="M540.569 156.671L539.857 156.802L540.586 160.774L541.299 160.643L540.569 156.671Z" fill="#D28572"/>
<path d="M536.238 156.794L535.526 156.925L536.255 160.897L536.968 160.766L536.238 156.794Z" fill="#D28572"/>
<path d="M532.623 157.04L531.91 157.171L532.64 161.143L533.352 161.012L532.623 157.04Z" fill="#D28572"/>
<path d="M546.212 158.113L545.531 158.368L547.786 164.411L548.467 164.157L546.212 158.113Z" fill="#D28572"/>
<path d="M525.756 192.722L513.343 199.954C513.613 197.285 513.865 195.591 513.865 195.591C518.455 193.058 525.756 192.722 525.756 192.722Z" fill="#D28572"/>
<path opacity="0.4" d="M536.855 228.351C533.568 233.165 528.912 235.35 524.383 234.867C524.338 234.544 524.316 234.218 524.318 233.892C524.317 232.44 524.738 231.018 525.53 229.801C526.322 228.583 527.451 227.622 528.78 227.035C530.109 226.448 531.579 226.26 533.013 226.493C534.447 226.727 535.782 227.372 536.855 228.351Z" fill="#FE5B52"/>
<path opacity="0.4" d="M463.216 232.983C460.973 236.773 457.377 239.376 451.839 240.068C451.817 239.838 451.807 239.607 451.808 239.376C451.808 238.044 452.163 236.736 452.836 235.586C453.51 234.437 454.477 233.488 455.639 232.837C456.801 232.186 458.116 231.856 459.448 231.882C460.779 231.908 462.08 232.288 463.216 232.983Z" fill="#FE5B52"/>
<path d="M435.26 229.136C433.35 228.749 430.96 225.806 430.16 224.256L430.802 223.923C431.629 225.516 433.895 228.127 435.404 228.424L435.26 229.136Z" fill="#D28572"/>
<path d="M430.732 229.638C429.112 227.971 427.638 225.895 427.016 224.472L427.685 224.189C428.253 225.539 429.688 227.523 431.254 229.132L430.732 229.638Z" fill="#D28572"/>
<path d="M426.25 229.515C424.63 227.852 423.137 225.775 422.534 224.352L423.203 224.07C423.771 225.415 425.206 227.403 426.768 229.012L426.25 229.515Z" fill="#D28572"/>
<path d="M508.358 158.444C505.078 163.208 499.239 169.272 490.72 169.272C480.707 169.272 474.423 163.521 470.958 158.83L481.295 156.305C481.547 154.449 481.759 152.643 481.933 150.93C482.069 149.588 482.185 148.304 482.293 147.082C482.467 145.083 482.583 143.273 482.68 141.73C482.803 139.611 482.861 138.006 482.892 137.116C482.892 136.602 482.892 136.343 482.892 136.343L497.394 130.542C497.394 130.542 496.911 149.395 501.261 156.313L508.358 158.444Z" fill="#FFBC96"/>
<path d="M494.428 143.323C494.428 143.323 490.561 147.86 481.933 150.915C482.069 149.573 482.185 148.289 482.293 147.067C482.467 145.068 482.583 143.258 482.68 141.715L494.428 143.323Z" fill="#D28572"/>
<path d="M479.041 118.766C479.041 118.766 471.627 138.907 476.945 142.615C481.674 145.91 487.9 146.32 494.026 144.707L498.052 131.014L495.635 117.637L479.041 118.766Z" fill="#FFBC96"/>
<path d="M495.96 131.173C495.96 131.173 490.723 133.18 488.546 125.855C486.775 119.896 479.041 118.767 479.041 118.767L482.165 115.866L497.069 115.48L502.549 122.166L500.697 130.867L495.96 131.173Z" fill="#1B1B43"/>
<path d="M502.724 135.366C504.414 132.438 503.91 128.982 501.598 127.647C499.286 126.313 496.041 127.604 494.351 130.532C492.661 133.46 493.164 136.916 495.477 138.251C497.789 139.585 501.033 138.294 502.724 135.366Z" fill="#FFBC96"/>
<path d="M496.826 135.589H496.099C496.099 135.542 496.196 131.033 500.67 130.519L500.751 131.238C496.919 131.652 496.826 135.407 496.826 135.589Z" fill="#1B1B43"/>
<path d="M478.051 129.363C478.508 129.363 478.879 128.992 478.879 128.535C478.879 128.078 478.508 127.707 478.051 127.707C477.594 127.707 477.223 128.078 477.223 128.535C477.223 128.992 477.594 129.363 478.051 129.363Z" fill="#1B1B43"/>
<path d="M484.513 129.68C484.514 129.878 484.455 130.072 484.346 130.238C484.236 130.403 484.08 130.532 483.896 130.608C483.713 130.685 483.511 130.705 483.317 130.666C483.122 130.628 482.943 130.532 482.803 130.392C482.663 130.252 482.567 130.073 482.529 129.878C482.49 129.684 482.51 129.482 482.587 129.299C482.663 129.115 482.792 128.959 482.957 128.849C483.123 128.74 483.317 128.681 483.515 128.682C483.779 128.683 484.033 128.789 484.219 128.975C484.406 129.162 484.512 129.416 484.513 129.68Z" fill="#1B1B43"/>
<path d="M479.845 126.651H477.378C477.211 126.651 477.052 126.586 476.933 126.468C476.815 126.351 476.748 126.192 476.747 126.025C476.747 125.942 476.764 125.86 476.795 125.784C476.827 125.707 476.874 125.638 476.932 125.579C476.991 125.521 477.06 125.474 477.137 125.443C477.213 125.411 477.295 125.395 477.378 125.395H479.845C479.928 125.395 480.01 125.411 480.086 125.443C480.163 125.474 480.232 125.521 480.291 125.579C480.349 125.638 480.396 125.707 480.427 125.784C480.459 125.86 480.475 125.942 480.475 126.025C480.474 126.192 480.408 126.351 480.289 126.468C480.171 126.586 480.012 126.651 479.845 126.651Z" fill="#1B1B43"/>
<path d="M486.056 128.384L483.349 127.224C483.195 127.159 483.073 127.036 483.01 126.882C482.947 126.727 482.948 126.554 483.012 126.4C483.077 126.247 483.2 126.125 483.355 126.062C483.509 125.999 483.682 126 483.836 126.064L486.566 127.224C486.72 127.289 486.842 127.412 486.905 127.566C486.968 127.721 486.967 127.894 486.903 128.048C486.87 128.126 486.822 128.198 486.762 128.257C486.701 128.317 486.63 128.364 486.551 128.395C486.472 128.427 486.387 128.442 486.302 128.44C486.217 128.438 486.133 128.419 486.056 128.384Z" fill="#1B1B43"/>
<path d="M477.672 134.815C477.6 134.816 477.529 134.795 477.469 134.755C477.409 134.715 477.363 134.658 477.335 134.591C476.852 133.431 476.837 132.514 477.297 131.907C477.757 131.3 478.627 131.184 479.056 131.184L479.977 129.394C479.998 129.351 480.028 129.314 480.065 129.283C480.101 129.253 480.143 129.23 480.188 129.215C480.234 129.201 480.281 129.196 480.328 129.2C480.376 129.204 480.422 129.217 480.464 129.239C480.506 129.261 480.544 129.291 480.574 129.327C480.605 129.363 480.628 129.405 480.642 129.45C480.657 129.496 480.662 129.543 480.658 129.591C480.654 129.638 480.64 129.684 480.619 129.726L479.482 131.942L479.23 131.915C479.23 131.915 478.271 131.818 477.873 132.348C477.587 132.735 477.633 133.408 478.004 134.316C478.023 134.36 478.032 134.407 478.032 134.455C478.032 134.503 478.023 134.55 478.004 134.594C477.986 134.637 477.959 134.677 477.925 134.711C477.891 134.744 477.851 134.77 477.807 134.788C477.764 134.806 477.718 134.815 477.672 134.815Z" fill="#1B1B43"/>
<path d="M477.842 137.959C479.246 139.939 481.021 139.092 482.235 138.079C480.77 138.164 479.3 138.124 477.842 137.959Z" fill="#1B1B43"/>
<path d="M482.235 138.079C482.732 137.657 483.184 137.186 483.585 136.672C483.585 136.648 483.585 136.625 483.55 136.625C481.416 136.773 479.274 136.743 477.146 136.536C477.14 136.536 477.134 136.537 477.128 136.54C477.123 136.543 477.119 136.547 477.116 136.552C477.113 136.558 477.112 136.564 477.112 136.57C477.113 136.576 477.115 136.582 477.119 136.587C477.305 137.071 477.548 137.532 477.842 137.959C479.3 138.124 480.77 138.164 482.235 138.079Z" fill="white"/>
<path opacity="0.4" d="M490.75 134.123C490.751 134.623 490.603 135.113 490.326 135.529C490.048 135.946 489.653 136.271 489.191 136.463C488.729 136.654 488.22 136.705 487.729 136.607C487.238 136.51 486.787 136.269 486.433 135.915C486.079 135.561 485.838 135.11 485.741 134.619C485.643 134.128 485.693 133.619 485.885 133.157C486.077 132.695 486.402 132.3 486.819 132.022C487.235 131.745 487.725 131.597 488.225 131.598C488.895 131.598 489.537 131.864 490.011 132.337C490.484 132.811 490.75 133.453 490.75 134.123Z" fill="#FE5B52"/>
<path d="M646.134 465.362H0.315308V466.329H646.134V465.362Z" fill="#1B1B43"/>
</svg>
