<svg width="257" height="209" viewBox="0 0 257 209" fill="none" xmlns="http://www.w3.org/2000/svg">
<g style="mix-blend-mode:multiply" opacity="0.2">
<path d="M124.69 163.343L21.1809 176.277C19.9635 176.426 18.7368 176.087 17.7687 175.334C16.8007 174.581 16.1699 173.475 16.0142 172.259L0.034177 44.3513C-0.114337 43.1341 0.224967 41.9075 0.977955 40.9396C1.73094 39.9717 2.83641 39.3411 4.05282 39.1857L107.562 26.2526C108.779 26.1043 110.005 26.4438 110.973 27.1967C111.941 27.9496 112.572 29.0549 112.727 30.2712L128.708 158.176C128.857 159.394 128.518 160.621 127.765 161.589C127.012 162.557 125.906 163.187 124.69 163.343Z" fill="#3A7EC1"/>
</g>
<path d="M130.338 156.854L26.8295 169.787C25.6122 169.936 24.3856 169.596 23.4176 168.843C22.4496 168.09 21.8188 166.985 21.6629 165.769L5.68282 37.8636C5.53316 36.645 5.87248 35.4167 6.62647 34.4477C7.38046 33.4788 8.48769 32.8481 9.70571 32.6937L113.214 19.7616C114.432 19.6128 115.658 19.9518 116.626 20.7047C117.594 21.4575 118.225 22.5629 118.38 23.7792L134.361 151.685C134.51 152.904 134.171 154.132 133.417 155.1C132.663 156.069 131.556 156.7 130.338 156.854Z" fill="#500794"/>
<path d="M128.977 151.377L26.8044 164.143C26.5624 164.172 26.3185 164.105 26.126 163.955C25.9335 163.806 25.8082 163.586 25.7774 163.344L9.66461 34.4002C9.63485 34.1582 9.70218 33.9143 9.85186 33.7218C10.0015 33.5294 10.2214 33.404 10.4632 33.3733L112.638 20.6069C112.88 20.5774 113.124 20.645 113.317 20.7948C113.509 20.9447 113.634 21.1646 113.665 21.4066L129.776 150.35C129.805 150.592 129.738 150.836 129.589 151.029C129.439 151.221 129.219 151.347 128.977 151.377Z" fill="white"/>
<path d="M27.4616 57.9323L20.6838 58.7819C20.2849 58.8311 19.8828 58.7202 19.5656 58.4733C19.2485 58.2264 19.0422 57.8638 18.992 57.465L18.1424 50.6883C18.0934 50.2893 18.2045 49.8872 18.4513 49.5699C18.6981 49.2527 19.0606 49.0461 19.4593 48.9955L26.236 48.1459C26.635 48.0969 27.0371 48.2079 27.3544 48.4547C27.6716 48.7015 27.8782 49.064 27.9289 49.4628L28.7785 56.2394C28.8032 56.437 28.7887 56.6376 28.7359 56.8296C28.683 57.0216 28.5929 57.2014 28.4706 57.3586C28.3483 57.5158 28.1963 57.6474 28.0232 57.7458C27.85 57.8442 27.6592 57.9076 27.4616 57.9323ZM19.6197 50.2582C19.5878 50.2617 19.557 50.2716 19.529 50.2872C19.501 50.3028 19.4764 50.3238 19.4566 50.349C19.4369 50.3742 19.4223 50.4031 19.4138 50.434C19.4054 50.4649 19.4031 50.4972 19.4073 50.529L20.2569 57.3057C20.2607 57.3374 20.2707 57.3681 20.2864 57.396C20.3021 57.4238 20.3231 57.4483 20.3483 57.468C20.3734 57.4878 20.4022 57.5023 20.433 57.5109C20.4638 57.5195 20.496 57.5219 20.5277 57.5181L27.3044 56.6685C27.3361 56.6648 27.3667 56.6549 27.3946 56.6393C27.4224 56.6237 27.4469 56.6028 27.4667 56.5778C27.4864 56.5527 27.501 56.524 27.5096 56.4932C27.5182 56.4625 27.5206 56.4304 27.5168 56.3987L26.6672 49.6221C26.6592 49.5581 26.6263 49.4998 26.5755 49.4601C26.5248 49.4203 26.4604 49.4021 26.3964 49.4097L19.6197 50.2582Z" fill="#E4ECF9"/>
<path d="M29.6186 75.1974L22.8419 76.0471C22.443 76.0966 22.0407 75.9859 21.7233 75.7393C21.406 75.4926 21.1994 75.13 21.149 74.7312L20.2994 67.9545C20.2499 67.5556 20.3606 67.1534 20.6072 66.836C20.8539 66.5186 21.2165 66.3121 21.6153 66.2617L28.3919 65.4121C28.791 65.3628 29.1932 65.4738 29.5106 65.7206C29.8279 65.9675 30.0344 66.3301 30.0848 66.729L30.9344 73.5057C30.984 73.9045 30.8732 74.3066 30.6265 74.6238C30.3798 74.941 30.0173 75.1473 29.6186 75.1974ZM21.7767 67.5276C21.7449 67.5313 21.7142 67.5412 21.6862 67.5569C21.6583 67.5725 21.6337 67.5935 21.614 67.6187C21.5942 67.6439 21.5797 67.6727 21.5712 67.7036C21.5626 67.7344 21.5603 67.7667 21.5643 67.7984L22.4139 74.5751C22.4176 74.6069 22.4275 74.6376 22.4432 74.6656C22.4588 74.6935 22.4798 74.7181 22.505 74.7378C22.5302 74.7576 22.559 74.7721 22.5899 74.7807C22.6207 74.7892 22.653 74.7915 22.6847 74.7875L29.4614 73.9379C29.4932 73.9342 29.5239 73.9243 29.5519 73.9086C29.5798 73.893 29.6043 73.872 29.6241 73.8468C29.6438 73.8216 29.6584 73.7928 29.6669 73.7619C29.6755 73.7311 29.6778 73.6989 29.6738 73.6671L28.8221 66.8904C28.8184 66.8586 28.8084 66.8279 28.7928 66.7999C28.7772 66.772 28.7561 66.7475 28.731 66.7277C28.7058 66.708 28.6769 66.6934 28.6461 66.6849C28.6152 66.6763 28.583 66.674 28.5513 66.678L21.7767 67.5276Z" fill="#E4ECF9"/>
<path d="M31.7755 92.4625L24.9989 93.3121C24.5998 93.3613 24.1976 93.2504 23.8802 93.0035C23.5629 92.7567 23.3564 92.394 23.306 91.9952L22.4564 85.2185C22.4068 84.8197 22.5176 84.4175 22.7643 84.1003C23.011 83.7831 23.3735 83.5768 23.7722 83.5267L30.55 82.6771C30.9488 82.6281 31.3508 82.7392 31.6679 82.986C31.985 83.2329 32.1914 83.5953 32.2418 83.994L33.0914 90.7707C33.1407 91.1694 33.0298 91.5714 32.7832 91.8885C32.5365 92.2057 32.1741 92.4121 31.7755 92.4625ZM23.9369 84.7873C23.9051 84.791 23.8743 84.8009 23.8464 84.8166C23.8185 84.8322 23.7939 84.8532 23.7742 84.8784C23.7544 84.9036 23.7398 84.9324 23.7313 84.9633C23.7228 84.9941 23.7204 85.0264 23.7245 85.0581L24.5741 91.8348C24.5779 91.8665 24.5879 91.8972 24.6036 91.9251C24.6193 91.9529 24.6403 91.9774 24.6654 91.9972C24.6906 92.0169 24.7194 92.0314 24.7502 92.04C24.781 92.0486 24.8131 92.051 24.8449 92.0472L31.6216 91.1976C31.6533 91.194 31.684 91.1842 31.7119 91.1687C31.7399 91.1532 31.7644 91.1322 31.7842 91.1071C31.8039 91.082 31.8185 91.0533 31.8271 91.0225C31.8356 90.9917 31.838 90.9595 31.834 90.9278L30.9843 84.1512C30.9764 84.0872 30.9434 84.029 30.8927 83.9892C30.842 83.9494 30.7776 83.9313 30.7135 83.9388L23.9369 84.7873Z" fill="#E4ECF9"/>
<path d="M33.9324 109.727L27.1557 110.576C26.7568 110.626 26.3545 110.515 26.0372 110.268C25.7198 110.022 25.5132 109.659 25.4629 109.26L24.6133 102.484C24.564 102.085 24.6749 101.682 24.9218 101.365C25.1687 101.048 25.5313 100.841 25.9302 100.791L32.7068 99.9411C33.1058 99.8916 33.5081 100.002 33.8253 100.249C34.1426 100.496 34.3488 100.859 34.3986 101.258L35.2482 108.035C35.2978 108.433 35.1871 108.836 34.9404 109.153C34.6936 109.47 34.3311 109.676 33.9324 109.727ZM26.0905 102.051C26.0587 102.055 26.028 102.065 26.0001 102.081C25.9721 102.096 25.9476 102.117 25.9278 102.142C25.9081 102.168 25.8935 102.196 25.885 102.227C25.8764 102.258 25.8741 102.29 25.8781 102.322L26.7277 109.099C26.7314 109.131 26.7414 109.161 26.757 109.189C26.7726 109.217 26.7936 109.242 26.8188 109.262C26.844 109.281 26.8729 109.296 26.9037 109.304C26.9345 109.313 26.9668 109.315 26.9985 109.311L33.7752 108.462C33.807 108.458 33.8378 108.448 33.8657 108.432C33.8936 108.417 33.9182 108.396 33.9379 108.371C33.9577 108.345 33.9722 108.317 33.9808 108.286C33.9893 108.255 33.9916 108.223 33.9876 108.191L33.138 101.414C33.1343 101.382 33.1244 101.352 33.1087 101.324C33.0931 101.296 33.0721 101.271 33.0469 101.251C33.0217 101.232 32.9929 101.217 32.962 101.209C32.9312 101.2 32.899 101.198 32.8672 101.202L26.0905 102.051Z" fill="#E4ECF9"/>
<path d="M29.4593 48.3913L29.4264 48.4061C29.0525 48.5847 28.6919 48.7898 28.3474 49.02L27.8483 49.3588L27.381 49.7219C26.7705 50.2027 26.1962 50.7277 25.6627 51.2927C25.1244 51.8387 24.6235 52.4202 24.1631 53.0333C23.8997 53.3721 23.6544 53.7236 23.4197 54.0826C23.1935 53.97 22.962 53.8627 22.7251 53.764C22.4065 53.6132 22.0539 53.4974 21.7109 53.3731C21.3537 53.2527 20.989 53.1558 20.6192 53.0832L20.5841 53.0768C20.5712 53.0743 20.5579 53.0753 20.5455 53.0798C20.5332 53.0843 20.5223 53.0921 20.514 53.1023C20.5074 53.1098 20.5024 53.1186 20.4993 53.128C20.4962 53.1375 20.495 53.1475 20.4959 53.1575C20.4968 53.1674 20.4997 53.1771 20.5045 53.1859C20.5092 53.1946 20.5157 53.2024 20.5236 53.2085C21.5941 54.0911 22.6827 54.9502 23.7723 55.8083C23.8006 55.8303 23.8365 55.8402 23.8721 55.8358C23.9078 55.8314 23.9402 55.8132 23.9624 55.785C24.9182 54.5881 25.8591 53.3848 26.7831 52.1646L28.1775 50.3422C28.6469 49.7379 29.0929 49.1166 29.5517 48.5049C29.5598 48.4942 29.5648 48.4816 29.5663 48.4684C29.5678 48.4551 29.5657 48.4417 29.5602 48.4295C29.5566 48.42 29.551 48.4113 29.5438 48.4041C29.5366 48.3969 29.5279 48.3913 29.5184 48.3877C29.5088 48.3841 29.4986 48.3826 29.4885 48.3832C29.4783 48.3838 29.4684 48.3865 29.4593 48.3913Z" fill="#450C7A"/>
<path d="M33.7403 82.6792L33.7084 82.6941C33.3345 82.8726 32.9739 83.0778 32.6294 83.3079L32.1303 83.6467L31.663 84.0099C31.0524 84.491 30.4781 85.0163 29.9446 85.5817C29.4064 86.1277 28.9054 86.7092 28.4451 87.3223C28.1817 87.6611 27.9364 88.0126 27.7017 88.3716C27.4755 88.259 27.244 88.1517 27.0061 88.053C26.6875 87.9022 26.3359 87.7864 25.9929 87.6621C25.6357 87.5418 25.271 87.445 24.9012 87.3722L24.8651 87.3659C24.8523 87.3634 24.8392 87.3645 24.827 87.369C24.8148 87.3735 24.8041 87.3812 24.796 87.3913C24.7893 87.3987 24.7841 87.4075 24.7809 87.417C24.7777 87.4265 24.7765 87.4366 24.7774 87.4465C24.7783 87.4565 24.7813 87.4662 24.7861 87.475C24.791 87.4838 24.7976 87.4915 24.8056 87.4975C25.8761 88.3801 26.9646 89.2392 28.0543 90.0973C28.0683 90.1084 28.0843 90.1165 28.1014 90.1213C28.1186 90.1261 28.1365 90.1274 28.1542 90.1253C28.1719 90.1231 28.1889 90.1174 28.2044 90.1086C28.2199 90.0998 28.2335 90.0881 28.2444 90.074C29.2002 88.8771 30.1411 87.6738 31.064 86.4536L32.4563 84.6259C32.9257 84.0216 33.3717 83.4003 33.8305 82.7886C33.8386 82.7754 33.8424 82.76 33.8412 82.7446C33.84 82.7292 33.834 82.7145 33.824 82.7027C33.814 82.6909 33.8005 82.6826 33.7854 82.6789C33.7704 82.6753 33.7546 82.6765 33.7403 82.6824V82.6792Z" fill="#450C7A"/>
<path d="M35.8981 99.9432L35.8652 99.9592C35.4911 100.137 35.1305 100.342 34.7862 100.573L34.2871 100.912L33.8198 101.275C33.2093 101.756 32.6349 102.281 32.1014 102.846C31.5632 103.391 31.0623 103.973 30.6019 104.585C30.3385 104.925 30.0932 105.277 29.8585 105.636C29.6326 105.522 29.4011 105.416 29.1639 105.317C28.8453 105.167 28.4927 105.05 28.1497 104.926C27.7924 104.806 27.4277 104.709 27.058 104.636L27.0229 104.63C27.01 104.628 26.9968 104.629 26.9844 104.633C26.9721 104.638 26.9612 104.645 26.9528 104.655C26.94 104.671 26.9338 104.691 26.9356 104.71C26.9374 104.73 26.947 104.749 26.9624 104.762C28.0329 105.644 29.1214 106.502 30.2111 107.361C30.2394 107.383 30.2753 107.393 30.3109 107.389C30.3465 107.384 30.379 107.366 30.4012 107.338C31.357 106.141 32.2979 104.937 33.2219 103.717L34.6163 101.895C35.0857 101.291 35.5317 100.669 35.9905 100.057C35.9984 100.044 36.002 100.029 36.0008 100.013C35.9997 99.9981 35.9937 99.9836 35.9839 99.9719C35.9741 99.9602 35.9608 99.9518 35.946 99.948C35.9312 99.9442 35.9156 99.9452 35.9013 99.9507L35.8981 99.9432Z" fill="#450C7A"/>
<path d="M107.623 41.7504L37.7324 50.4823C37.4553 50.5171 37.1742 50.4969 36.905 50.423C36.6358 50.349 36.3838 50.2227 36.1634 50.0513C35.9431 49.8798 35.7587 49.6666 35.6208 49.4239C35.4829 49.1811 35.3942 48.9136 35.3598 48.6365C35.325 48.3595 35.3452 48.0783 35.4191 47.8091C35.4931 47.5399 35.6194 47.2879 35.7908 47.0676C35.9623 46.8472 36.1755 46.6628 36.4182 46.5249C36.661 46.3871 36.9285 46.2984 37.2056 46.264L107.096 37.5311C107.373 37.4963 107.655 37.5164 107.924 37.5904C108.193 37.6644 108.445 37.7907 108.665 37.9621C108.886 38.1335 109.07 38.3467 109.208 38.5895C109.346 38.8322 109.435 39.0998 109.469 39.3769C109.504 39.6539 109.484 39.9352 109.41 40.2045C109.336 40.4739 109.21 40.726 109.038 40.9465C108.867 41.1669 108.654 41.3514 108.411 41.4894C108.168 41.6273 107.9 41.7161 107.623 41.7504Z" fill="#E4ECF9"/>
<path d="M108.441 48.3286L38.5501 57.0604C38.2732 57.0952 37.9921 57.0751 37.723 57.0012C37.4538 56.9273 37.2019 56.8011 36.9815 56.6298C36.7612 56.4585 36.5768 56.2454 36.4388 56.0028C36.3009 55.7601 36.2121 55.4927 36.1776 55.2157C36.1426 54.9386 36.1627 54.6574 36.2366 54.3881C36.3105 54.1187 36.4367 53.8666 36.6082 53.6461C36.7796 53.4257 36.9929 53.2412 37.2357 53.1032C37.4785 52.9653 37.7462 52.8765 38.0234 52.8421L107.914 44.1103C108.191 44.0755 108.472 44.0957 108.742 44.1696C109.011 44.2436 109.263 44.3699 109.483 44.5413C109.703 44.7128 109.888 44.926 110.026 45.1687C110.164 45.4115 110.252 45.679 110.287 45.9561C110.321 46.2331 110.301 46.5142 110.227 46.7835C110.153 47.0527 110.027 47.3047 109.856 47.525C109.684 47.7454 109.471 47.9298 109.228 48.0676C108.986 48.2055 108.718 48.2942 108.441 48.3286Z" fill="#E4ECF9"/>
<path d="M109.776 59.0145L39.8851 67.7464C39.6081 67.7812 39.3271 67.761 39.0579 67.6872C38.7888 67.6133 38.5368 67.487 38.3165 67.3157C38.0961 67.1444 37.9117 66.9313 37.7738 66.6887C37.6358 66.4461 37.5471 66.1786 37.5125 65.9016C37.4776 65.6246 37.4976 65.3433 37.5715 65.074C37.6454 64.8046 37.7717 64.5525 37.9431 64.332C38.1146 64.1116 38.3278 63.9271 38.5707 63.7891C38.8135 63.6512 39.0812 63.5625 39.3583 63.5281L109.249 54.7962C109.526 54.7614 109.807 54.7816 110.077 54.8555C110.346 54.9295 110.598 55.0558 110.818 55.2272C111.038 55.3987 111.223 55.6119 111.361 55.8546C111.499 56.0974 111.587 56.3649 111.622 56.642C111.656 56.919 111.636 57.2002 111.562 57.4694C111.488 57.7386 111.362 57.9906 111.191 58.2109C111.019 58.4313 110.806 58.6157 110.563 58.7536C110.321 58.8914 110.053 58.9801 109.776 59.0145Z" fill="#E4ECF9"/>
<path d="M110.597 65.5936L40.707 74.3244C40.43 74.3592 40.1488 74.339 39.8796 74.2651C39.6104 74.1911 39.3584 74.0648 39.138 73.8934C38.9177 73.7219 38.7333 73.5087 38.5954 73.266C38.4575 73.0232 38.3688 72.7557 38.3344 72.4786C38.2996 72.2016 38.3198 71.9204 38.3938 71.6512C38.4677 71.382 38.594 71.13 38.7655 70.9097C38.9369 70.6893 39.1501 70.5049 39.3928 70.367C39.6356 70.2292 39.9031 70.1405 40.1802 70.1061L110.071 61.3742C110.348 61.3394 110.629 61.3596 110.898 61.4334C111.167 61.5073 111.419 61.6336 111.64 61.8049C111.86 61.9762 112.044 62.1893 112.182 62.4319C112.32 62.6745 112.409 62.942 112.444 63.219C112.479 63.4962 112.459 63.7777 112.385 64.0472C112.311 64.3167 112.185 64.569 112.013 64.7896C111.841 65.0102 111.628 65.1947 111.385 65.3327C111.142 65.4707 110.874 65.5593 110.597 65.5936Z" fill="#E4ECF9"/>
<path d="M111.933 76.2796L42.043 85.0114C41.7659 85.0463 41.4846 85.0263 41.2153 84.9524C40.946 84.8785 40.6938 84.7522 40.4734 84.5808C40.2529 84.4093 40.0684 84.1961 39.9305 83.9533C39.7925 83.7104 39.7038 83.4428 39.6694 83.1656C39.6346 82.8886 39.6548 82.6075 39.7287 82.3383C39.8027 82.069 39.929 81.8171 40.1004 81.5967C40.2718 81.3763 40.485 81.192 40.7278 81.0541C40.9705 80.9162 41.2381 80.8275 41.5152 80.7931L111.406 72.0613C111.683 72.0265 111.964 72.0466 112.233 72.1205C112.502 72.1944 112.754 72.3206 112.975 72.4919C113.195 72.6632 113.379 72.8763 113.517 73.1189C113.655 73.3616 113.744 73.629 113.779 73.906C113.813 74.1831 113.793 74.4643 113.72 74.7336C113.646 75.003 113.519 75.2551 113.348 75.4756C113.176 75.696 112.963 75.8805 112.72 76.0185C112.478 76.1565 112.21 76.2452 111.933 76.2796Z" fill="#E4ECF9"/>
<path d="M112.755 82.8577L42.8649 91.5906C42.5878 91.6255 42.3065 91.6055 42.0372 91.5316C41.7679 91.4577 41.5158 91.3314 41.2953 91.16C41.0748 90.9885 40.8903 90.7753 40.7524 90.5325C40.6144 90.2896 40.5257 90.022 40.4913 89.7448C40.4564 89.4677 40.4764 89.1864 40.5503 88.9171C40.6242 88.6478 40.7505 88.3957 40.9219 88.1752C41.0934 87.9547 41.3066 87.7702 41.5494 87.6323C41.7922 87.4943 42.0599 87.4056 42.3371 87.3712L112.228 78.6394C112.505 78.6046 112.786 78.6247 113.055 78.6986C113.324 78.7725 113.576 78.8987 113.796 79.07C114.017 79.2413 114.201 79.4544 114.339 79.697C114.477 79.9397 114.566 80.2071 114.6 80.4841C114.635 80.7612 114.615 81.0424 114.541 81.3118C114.468 81.5811 114.341 81.8332 114.17 82.0537C113.998 82.2742 113.785 82.4587 113.542 82.5966C113.299 82.7346 113.032 82.8233 112.755 82.8577Z" fill="#E4ECF9"/>
<path d="M114.09 93.5468L44.1999 102.276C43.9229 102.311 43.6417 102.291 43.3725 102.217C43.1033 102.143 42.8513 102.017 42.631 101.845C42.4106 101.674 42.2262 101.461 42.0883 101.218C41.9504 100.975 41.8618 100.708 41.8274 100.431C41.7926 100.154 41.8127 99.8727 41.8866 99.6036C41.9605 99.3344 42.0867 99.0825 42.258 98.8621C42.4293 98.6418 42.6424 98.4574 42.885 98.3194C43.1277 98.1815 43.3951 98.0927 43.6721 98.0582L113.563 89.3253C113.84 89.2905 114.121 89.3106 114.39 89.3846C114.659 89.4586 114.911 89.5849 115.132 89.7563C115.352 89.9277 115.537 90.1409 115.674 90.3837C115.812 90.6264 115.901 90.894 115.935 91.171C115.971 91.4483 115.951 91.7298 115.877 91.9994C115.803 92.2689 115.677 92.5213 115.506 92.742C115.334 92.9627 115.121 93.1474 114.878 93.2855C114.635 93.4236 114.367 93.5124 114.09 93.5468Z" fill="#E4ECF9"/>
<path d="M114.912 100.123L45.022 108.855C44.7449 108.889 44.4636 108.869 44.1943 108.796C43.925 108.722 43.6728 108.595 43.4524 108.424C43.2319 108.252 43.0474 108.039 42.9095 107.796C42.7715 107.554 42.6828 107.286 42.6484 107.009C42.6136 106.732 42.6338 106.451 42.7077 106.181C42.7817 105.912 42.908 105.66 43.0794 105.44C43.2508 105.219 43.464 105.035 43.7068 104.897C43.9496 104.759 44.2171 104.671 44.4942 104.636L114.385 95.9044C114.662 95.8696 114.943 95.8897 115.212 95.9637C115.482 96.0377 115.734 96.164 115.954 96.3354C116.174 96.5068 116.359 96.72 116.497 96.9628C116.634 97.2055 116.723 97.4731 116.758 97.7502C116.792 98.0272 116.772 98.3083 116.698 98.5775C116.624 98.8467 116.498 99.0987 116.326 99.3191C116.155 99.5394 115.942 99.7238 115.699 99.8617C115.456 99.9996 115.189 100.088 114.912 100.123Z" fill="#E4ECF9"/>
<path d="M38.3166 144.811L31.5388 145.661C31.14 145.71 30.7379 145.599 30.4207 145.353C30.1035 145.106 29.8971 144.743 29.847 144.345L28.9974 137.568C28.9484 137.169 29.0595 136.767 29.3063 136.45C29.5531 136.132 29.9156 135.926 30.3143 135.875L37.091 135.026C37.49 134.976 37.8923 135.087 38.2096 135.334C38.5269 135.581 38.7334 135.944 38.7838 136.342L39.6334 143.119C39.683 143.518 39.5721 143.92 39.3252 144.238C39.0782 144.555 38.7155 144.761 38.3166 144.811ZM30.4747 137.136C30.4429 137.139 30.4121 137.149 30.3842 137.165C30.3563 137.181 30.3317 137.202 30.312 137.227C30.2922 137.252 30.2777 137.281 30.2691 137.312C30.2606 137.343 30.2583 137.375 30.2623 137.407L31.1119 144.183C31.1156 144.215 31.1255 144.246 31.1411 144.274C31.1568 144.302 31.1778 144.326 31.203 144.346C31.2282 144.366 31.257 144.38 31.2879 144.389C31.3187 144.397 31.3509 144.4 31.3827 144.396L38.1594 143.546C38.1911 143.542 38.2217 143.533 38.2496 143.517C38.2774 143.501 38.3019 143.48 38.3216 143.455C38.3414 143.43 38.356 143.402 38.3646 143.371C38.3732 143.34 38.3756 143.308 38.3718 143.276L37.5222 136.499C37.5185 136.467 37.5085 136.436 37.4929 136.408C37.4773 136.38 37.4562 136.356 37.4311 136.336C37.4059 136.316 37.377 136.302 37.3462 136.293C37.3153 136.285 37.2831 136.282 37.2514 136.286L30.4747 137.136Z" fill="#E4ECF9"/>
<path d="M40.2811 135.028L40.2492 135.044C39.8751 135.222 39.5145 135.427 39.1702 135.658L38.671 135.996L38.2038 136.36C37.5933 136.84 37.0189 137.365 36.4854 137.93C35.946 138.476 35.4437 139.057 34.9816 139.67C34.7193 140.01 34.4729 140.361 34.2382 140.72C34.0109 140.607 33.7805 140.5 33.5426 140.402C33.224 140.251 32.8725 140.134 32.5294 140.01C32.1718 139.89 31.8067 139.793 31.4366 139.72L31.4016 139.713C31.3887 139.711 31.3755 139.712 31.3632 139.717C31.3509 139.721 31.34 139.729 31.3315 139.739C31.3251 139.746 31.3203 139.755 31.3173 139.765C31.3144 139.774 31.3133 139.784 31.3143 139.794C31.3153 139.804 31.3183 139.814 31.3231 139.822C31.3278 139.831 31.3343 139.839 31.3421 139.845C32.4126 140.728 33.5012 141.587 34.5897 142.445C34.6183 142.467 34.6543 142.477 34.6901 142.472C34.7259 142.468 34.7585 142.45 34.7809 142.422C35.7367 141.225 36.6776 140.02 37.6005 138.8L38.995 136.979C39.4644 136.374 39.9115 135.753 40.3756 135.14C40.3837 135.127 40.3874 135.112 40.3862 135.096C40.3851 135.081 40.379 135.066 40.369 135.055C40.359 135.043 40.3455 135.034 40.3305 135.031C40.3154 135.027 40.2996 135.028 40.2853 135.034L40.2811 135.028Z" fill="#450C7A"/>
<path d="M118.474 128.628L48.5827 137.361C48.3057 137.396 48.0245 137.376 47.7553 137.302C47.4861 137.228 47.2341 137.101 47.0138 136.93C46.7934 136.759 46.609 136.545 46.4711 136.303C46.3332 136.06 46.2446 135.792 46.2102 135.515C46.1754 135.238 46.1955 134.957 46.2695 134.688C46.3435 134.419 46.4698 134.167 46.6412 133.946C46.8126 133.726 47.0258 133.542 47.2686 133.404C47.5113 133.266 47.7789 133.177 48.0559 133.143L117.947 124.41C118.224 124.375 118.505 124.395 118.774 124.469C119.043 124.543 119.295 124.669 119.516 124.841C119.736 125.012 119.92 125.225 120.058 125.468C120.196 125.711 120.285 125.979 120.319 126.256C120.354 126.533 120.334 126.814 120.26 127.083C120.186 127.352 120.06 127.604 119.888 127.825C119.717 128.045 119.504 128.229 119.261 128.367C119.018 128.505 118.751 128.594 118.474 128.628Z" fill="#E4ECF9"/>
<path d="M119.296 135.207L49.405 143.939C49.128 143.974 48.8468 143.954 48.5776 143.88C48.3084 143.806 48.0564 143.68 47.836 143.508C47.6157 143.337 47.4313 143.123 47.2934 142.881C47.1555 142.638 47.0668 142.37 47.0324 142.093C46.9976 141.816 47.0178 141.535 47.0918 141.266C47.1657 140.997 47.292 140.745 47.4635 140.524C47.6349 140.304 47.8481 140.12 48.0908 139.982C48.3336 139.844 48.6011 139.755 48.8782 139.721L118.769 130.989C119.046 130.954 119.327 130.974 119.596 131.048C119.866 131.122 120.118 131.249 120.338 131.42C120.558 131.591 120.743 131.805 120.881 132.047C121.018 132.29 121.107 132.558 121.142 132.835C121.176 133.112 121.156 133.393 121.082 133.662C121.008 133.931 120.882 134.183 120.711 134.404C120.539 134.624 120.326 134.808 120.083 134.946C119.84 135.084 119.573 135.173 119.296 135.207Z" fill="#E4ECF9"/>
<path d="M36.1499 127.501L29.3732 128.351C28.9743 128.4 28.5722 128.289 28.2549 128.042C27.9376 127.795 27.7311 127.433 27.6804 127.034L26.8308 120.257C26.7815 119.858 26.8925 119.456 27.1393 119.139C27.3862 118.821 27.7488 118.615 28.1477 118.565L34.9244 117.715C35.3233 117.666 35.7254 117.777 36.0426 118.024C36.3597 118.27 36.566 118.633 36.6161 119.032L37.4658 125.809C37.5153 126.207 37.4046 126.61 37.1579 126.927C36.9113 127.244 36.5487 127.451 36.1499 127.501ZM28.308 119.826C28.2762 119.83 28.2454 119.84 28.2174 119.855C28.1894 119.871 28.1648 119.892 28.145 119.917C28.1252 119.942 28.1107 119.971 28.1022 120.002C28.0937 120.033 28.0915 120.065 28.0956 120.097L28.9453 126.874C28.9532 126.938 28.9862 126.996 29.0369 127.036C29.0876 127.075 29.152 127.094 29.2161 127.086L35.9927 126.237C36.0245 126.233 36.0552 126.223 36.0831 126.208C36.1111 126.192 36.1356 126.171 36.1554 126.146C36.1751 126.121 36.1897 126.092 36.1983 126.061C36.2068 126.031 36.2091 125.998 36.2052 125.967L35.3555 119.19C35.3476 119.126 35.3146 119.068 35.2639 119.028C35.2132 118.988 35.1488 118.97 35.0847 118.978L28.308 119.826Z" fill="#E4ECF9"/>
<path d="M116.311 111.318L46.4206 120.05C46.1436 120.085 45.8624 120.065 45.5932 119.991C45.324 119.917 45.072 119.791 44.8517 119.619C44.6313 119.448 44.4469 119.235 44.309 118.992C44.1711 118.749 44.0824 118.482 44.0481 118.204C44.0133 117.927 44.0334 117.646 44.1074 117.377C44.1813 117.108 44.3076 116.856 44.4791 116.636C44.6505 116.415 44.8637 116.231 45.1065 116.093C45.3492 115.955 45.6168 115.866 45.8938 115.832L115.784 107.099C116.061 107.064 116.342 107.084 116.611 107.158C116.88 107.232 117.132 107.359 117.353 107.53C117.573 107.702 117.757 107.915 117.895 108.157C118.033 108.4 118.122 108.668 118.156 108.945C118.191 109.222 118.171 109.503 118.097 109.772C118.023 110.042 117.897 110.294 117.726 110.514C117.555 110.735 117.341 110.919 117.099 111.057C116.856 111.195 116.588 111.284 116.311 111.318Z" fill="#E4ECF9"/>
<path d="M117.133 117.896L47.2425 126.628C46.9656 126.663 46.6845 126.643 46.4154 126.569C46.1462 126.495 45.8943 126.369 45.6739 126.198C45.4536 126.026 45.2692 125.813 45.1312 125.571C44.9933 125.328 44.9045 125.061 44.87 124.784C44.835 124.507 44.855 124.225 44.9289 123.956C45.0027 123.687 45.1289 123.435 45.3002 123.214C45.4715 122.994 45.6847 122.809 45.9274 122.671C46.1701 122.533 46.4376 122.445 46.7147 122.41L116.606 113.678C116.883 113.643 117.164 113.664 117.433 113.738C117.702 113.811 117.954 113.938 118.174 114.109C118.395 114.281 118.579 114.494 118.717 114.737C118.855 114.979 118.944 115.247 118.978 115.524C119.013 115.801 118.993 116.082 118.919 116.351C118.845 116.62 118.719 116.872 118.547 117.093C118.376 117.313 118.163 117.497 117.92 117.635C117.678 117.773 117.41 117.862 117.133 117.896Z" fill="#E4ECF9"/>
<path d="M123.14 143.952L30.6275 155.511C30.4616 155.53 30.2948 155.483 30.1631 155.38C30.0315 155.277 29.9454 155.127 29.9233 154.962C29.9043 154.796 29.9511 154.629 30.0535 154.498C30.156 154.366 30.306 154.28 30.4713 154.258L122.98 142.7C123.146 142.681 123.312 142.727 123.444 142.83C123.575 142.932 123.662 143.082 123.684 143.248C123.703 143.413 123.657 143.579 123.555 143.71C123.454 143.842 123.305 143.929 123.14 143.952Z" fill="#450C7A"/>
<path d="M18.3979 37.3257C18.8406 36.5155 18.5426 35.4999 17.7325 35.0573C16.9223 34.6146 15.9067 34.9126 15.4641 35.7228C15.0214 36.5329 15.3194 37.5485 16.1295 37.9912C16.9397 38.4338 17.9553 38.1358 18.3979 37.3257Z" fill="#333333"/>
<path d="M17.0093 37.1658C16.7154 37.202 16.4192 37.1206 16.1851 36.9394C15.951 36.7582 15.798 36.4918 15.7593 36.1983L14.7737 28.3086C14.7376 28.0145 14.8195 27.7179 15.0014 27.4839C15.1833 27.2499 15.4504 27.0974 15.7444 27.0597C16.0387 27.0239 16.3352 27.1061 16.5692 27.2881C16.8032 27.4702 16.9557 27.7374 16.9933 28.0315L17.9789 35.9211C18.0138 36.2145 17.9315 36.5098 17.75 36.7428C17.5684 36.9759 17.3022 37.1279 17.0093 37.1658Z" fill="#474747"/>
<path d="M25.7411 36.6723C26.325 35.9572 26.2186 34.9041 25.5034 34.3203C24.7883 33.7364 23.7353 33.8428 23.1514 34.5579C22.5676 35.2731 22.674 36.3261 23.3891 36.91C24.1042 37.4938 25.1572 37.3874 25.7411 36.6723Z" fill="#333333"/>
<path d="M24.5272 36.2258C24.2329 36.2616 23.9364 36.1795 23.7024 35.9974C23.4684 35.8153 23.316 35.5481 23.2783 35.254L22.2928 27.3644C22.2567 27.0703 22.3386 26.7739 22.5205 26.54C22.7024 26.3062 22.9695 26.1539 23.2634 26.1165C23.5576 26.0804 23.8541 26.1623 24.0882 26.3442C24.3222 26.526 24.4747 26.7932 24.5124 27.0872L25.4979 34.9768C25.534 35.271 25.4521 35.5676 25.2703 35.8016C25.0884 36.0356 24.8212 36.1881 24.5272 36.2258Z" fill="#474747"/>
<path d="M32.6899 36.1646C33.5231 35.767 33.8762 34.7692 33.4786 33.936C33.081 33.1028 32.0833 32.7497 31.2501 33.1473C30.4169 33.5449 30.0638 34.5426 30.4614 35.3758C30.859 36.209 31.8567 36.5621 32.6899 36.1646Z" fill="#333333"/>
<path d="M32.0452 35.2871C31.7509 35.3228 31.4544 35.2407 31.2204 35.0587C30.9864 34.8766 30.8339 34.6094 30.7962 34.3153L29.8107 26.4278C29.7749 26.1335 29.857 25.837 30.0391 25.603C30.2211 25.369 30.4884 25.2165 30.7824 25.1789C31.0766 25.1431 31.373 25.2252 31.6068 25.4073C31.8407 25.5894 31.9929 25.8566 32.0303 26.1506L33.0169 34.0403C33.0521 34.3342 32.9697 34.6302 32.7877 34.8637C32.6057 35.0972 32.3388 35.2494 32.0452 35.2871Z" fill="#474747"/>
<path d="M41.144 33.8974C41.2445 32.9796 40.582 32.1542 39.6643 32.0537C38.7466 31.9532 37.9212 32.6157 37.8207 33.5334C37.7201 34.4511 38.3826 35.2765 39.3003 35.3771C40.2181 35.4776 41.0435 34.8151 41.144 33.8974Z" fill="#333333"/>
<path d="M39.563 34.3471C39.2687 34.3829 38.9722 34.3008 38.7382 34.1187C38.5042 33.9367 38.3517 33.6694 38.3141 33.3754L37.3285 25.4857C37.2927 25.1915 37.3749 24.8951 37.557 24.6613C37.739 24.4275 38.0063 24.2752 38.3003 24.2378C38.5944 24.2018 38.891 24.2836 39.125 24.4655C39.359 24.6474 39.5115 24.9145 39.5492 25.2085L40.5347 33.0982C40.5705 33.3925 40.4884 33.689 40.3063 33.923C40.1243 34.157 39.8571 34.3094 39.563 34.3471Z" fill="#474747"/>
<path d="M48.1859 33.9636C48.8387 33.3108 48.8387 32.2524 48.1859 31.5996C47.5331 30.9468 46.4747 30.9468 45.8219 31.5996C45.1691 32.2524 45.1691 33.3108 45.8219 33.9636C46.4747 34.6164 47.5331 34.6164 48.1859 33.9636Z" fill="#333333"/>
<path d="M47.0813 33.4086C46.7871 33.4443 46.4907 33.3622 46.2569 33.1801C46.0231 32.9981 45.8708 32.7308 45.8334 32.4368L44.8468 24.5472C44.8111 24.2529 44.8931 23.9564 45.0752 23.7224C45.2573 23.4884 45.5245 23.3359 45.8186 23.2982C46.1129 23.2625 46.4094 23.3446 46.6434 23.5266C46.8774 23.7087 47.0298 23.9759 47.0675 24.27L48.053 32.1596C48.0888 32.454 48.0067 32.7505 47.8247 32.9845C47.6426 33.2184 47.3754 33.3709 47.0813 33.4086Z" fill="#474747"/>
<path d="M55.6933 33.0187C56.3527 32.3726 56.3634 31.3142 55.7172 30.6549C55.071 29.9955 54.0127 29.9848 53.3533 30.6309C52.694 31.2771 52.6832 32.3354 53.3294 32.9948C53.9756 33.6542 55.0339 33.6649 55.6933 33.0187Z" fill="#333333"/>
<path d="M54.6002 32.4684C54.3061 32.5042 54.0097 32.4223 53.7758 32.2405C53.5418 32.0586 53.3892 31.7916 53.3513 31.4978L52.3658 23.607C52.3297 23.313 52.4116 23.0166 52.5935 22.7827C52.7754 22.5489 53.0425 22.3966 53.3364 22.3592C53.6306 22.3231 53.9272 22.4049 54.1612 22.5868C54.3952 22.7687 54.5477 23.0359 54.5854 23.3299L55.5709 31.2195C55.6067 31.5137 55.5247 31.81 55.3429 32.044C55.1611 32.278 54.8941 32.4305 54.6002 32.4684Z" fill="#474747"/>
<path d="M62.5404 32.5095C63.4197 32.2281 63.9043 31.2871 63.6229 30.4079C63.3414 29.5286 62.4005 29.044 61.5212 29.3255C60.642 29.6069 60.1574 30.5479 60.4388 31.4271C60.7203 32.3064 61.6612 32.791 62.5404 32.5095Z" fill="#333333"/>
<path d="M62.1183 31.5255C61.824 31.5613 61.5275 31.4792 61.2935 31.2971C61.0595 31.1151 60.907 30.8478 60.8694 30.5538L59.8838 22.6641C59.8478 22.3699 59.9296 22.0734 60.1115 21.8394C60.2934 21.6053 60.5605 21.4528 60.8545 21.4152C61.1488 21.3794 61.4453 21.4615 61.6793 21.6436C61.9133 21.8256 62.0658 22.0928 62.1034 22.3869L63.089 30.2766C63.1251 30.5708 63.0432 30.8673 62.8613 31.1013C62.6794 31.3354 62.4123 31.4879 62.1183 31.5255Z" fill="#474747"/>
<path d="M71.0206 30.7596C71.4653 29.9505 71.1698 28.9342 70.3607 28.4896C69.5516 28.045 68.5353 28.3404 68.0907 29.1495C67.6461 29.9586 67.9415 30.9749 68.7506 31.4195C69.5597 31.8642 70.576 31.5687 71.0206 30.7596Z" fill="#333333"/>
<path d="M69.6362 30.5898C69.3421 30.6256 69.0457 30.5436 68.8118 30.3618C68.5778 30.18 68.4252 29.913 68.3873 29.6191L67.4018 21.7284C67.366 21.4343 67.448 21.1381 67.6298 20.9043C67.8117 20.6705 68.0787 20.5182 68.3725 20.4805C68.6666 20.4444 68.9632 20.5263 69.1972 20.7082C69.4312 20.89 69.5837 21.1572 69.6214 21.4512L70.6069 29.3409C70.643 29.6351 70.5612 29.9316 70.3793 30.1656C70.1974 30.3996 69.9302 30.5521 69.6362 30.5898Z" fill="#474747"/>
<path d="M78.3959 30.0576C78.9627 29.3289 78.8315 28.2787 78.1029 27.7118C77.3742 27.145 76.3239 27.2761 75.7571 28.0048C75.1902 28.7335 75.3214 29.7837 76.0501 30.3506C76.7788 30.9175 77.829 30.7863 78.3959 30.0576Z" fill="#333333"/>
<path d="M77.154 29.651C76.8597 29.6868 76.5632 29.6047 76.3292 29.4226C76.0952 29.2406 75.9428 28.9733 75.9051 28.6793L74.9196 20.7896C74.8838 20.4953 74.9659 20.1988 75.148 19.9648C75.33 19.7308 75.5972 19.5783 75.8913 19.5407C76.1855 19.5049 76.4819 19.587 76.7157 19.7691C76.9495 19.9512 77.1018 20.2184 77.1392 20.5124L78.1258 28.4021C78.1616 28.6964 78.0795 28.9929 77.8974 29.2269C77.7154 29.4609 77.4481 29.6133 77.154 29.651Z" fill="#474747"/>
<path d="M85.1606 29.6676C86.0279 29.3512 86.4745 28.3917 86.1582 27.5244C85.8418 26.6571 84.8823 26.2104 84.015 26.5268C83.1477 26.8432 82.701 27.8027 83.0174 28.67C83.3338 29.5373 84.2933 29.9839 85.1606 29.6676Z" fill="#333333"/>
<path d="M84.6721 28.7111C84.378 28.7469 84.0816 28.665 83.8476 28.4831C83.6137 28.3013 83.4611 28.0343 83.4232 27.7404L82.4376 19.8497C82.4019 19.5555 82.484 19.2591 82.6661 19.0253C82.8482 18.7915 83.1154 18.6393 83.4094 18.6019C83.7036 18.5658 84.0001 18.6476 84.2341 18.8295C84.4682 19.0114 84.6207 19.2785 84.6583 19.5725L85.6439 27.4622C85.6796 27.7565 85.5975 28.053 85.4155 28.287C85.2334 28.521 84.9662 28.6735 84.6721 28.7111Z" fill="#474747"/>
<path d="M93.4335 28.1779C94.0003 27.4493 93.8691 26.399 93.1405 25.8322C92.4118 25.2653 91.3615 25.3965 90.7947 26.1252C90.2278 26.8539 90.359 27.9041 91.0877 28.471C91.8164 29.0378 92.8666 28.9066 93.4335 28.1779Z" fill="#333333"/>
<path d="M92.1899 27.7724C91.8957 27.8084 91.5992 27.7264 91.3653 27.5443C91.1314 27.3621 90.9792 27.0947 90.9421 26.8006L89.9555 18.9109C89.9197 18.6166 90.0018 18.3201 90.1838 18.0861C90.3659 17.8521 90.6331 17.6997 90.9272 17.662C91.2215 17.6262 91.518 17.7083 91.752 17.8904C91.986 18.0725 92.1385 18.3397 92.1761 18.6338L93.1617 26.5234C93.1975 26.8177 93.1154 27.1142 92.9333 27.3482C92.7512 27.5822 92.484 27.7347 92.1899 27.7724Z" fill="#474747"/>
<path d="M99.845 27.8597C100.761 27.7425 101.408 26.9052 101.291 25.9895C101.174 25.0737 100.337 24.4264 99.4208 24.5435C98.505 24.6606 97.8577 25.498 97.9748 26.4137C98.092 27.3294 98.9293 27.9768 99.845 27.8597Z" fill="#333333"/>
<path d="M99.7079 26.8325C99.4138 26.8682 99.1176 26.7862 98.8838 26.6044C98.65 26.4225 98.4977 26.1556 98.46 25.8618L97.4734 17.9711C97.4379 17.6769 97.5202 17.3807 97.7022 17.1469C97.8842 16.9132 98.1513 16.7609 98.4451 16.7232C98.7393 16.6871 99.0359 16.7689 99.2699 16.9508C99.5039 17.1327 99.6564 17.3999 99.6941 17.6939L100.68 25.5835C100.715 25.8778 100.633 26.1743 100.451 26.4083C100.269 26.6423 100.002 26.7948 99.7079 26.8325Z" fill="#474747"/>
<path d="M107.756 26.8255C108.616 26.49 109.041 25.5208 108.706 24.6607C108.37 23.8006 107.401 23.3754 106.541 23.7109C105.681 24.0464 105.256 25.0156 105.591 25.8757C105.927 26.7357 106.896 27.161 107.756 26.8255Z" fill="#333333"/>
<path d="M107.227 25.8969C106.933 25.9326 106.636 25.8505 106.402 25.6685C106.168 25.4864 106.016 25.2192 105.978 24.9251L104.992 17.0355C104.956 16.7413 105.038 16.4447 105.22 16.2107C105.402 15.9767 105.669 15.8242 105.963 15.7865C106.257 15.7507 106.554 15.8328 106.788 16.0149C107.022 16.197 107.174 16.4642 107.212 16.7583L108.198 24.6479C108.233 24.9421 108.151 25.2384 107.97 25.4724C107.788 25.7064 107.521 25.8589 107.227 25.8969Z" fill="#474747"/>
<g style="mix-blend-mode:multiply" opacity="0.2">
<path d="M221.947 15.0855L79.1199 0.0198558C78.652 -0.0296102 78.179 0.0135698 77.7279 0.146916C77.2767 0.280262 76.8563 0.501166 76.4905 0.79702C76.1247 1.09287 75.8208 1.45789 75.5961 1.8712C75.3714 2.28452 75.2303 2.73804 75.1809 3.20588L55.7833 187.093C55.7338 187.561 55.777 188.034 55.9104 188.485C56.0437 188.936 56.2646 189.356 56.5605 189.722C56.8564 190.087 57.2214 190.391 57.6347 190.616C58.048 190.84 58.5015 190.981 58.9693 191.031L201.797 206.097C202.265 206.147 202.738 206.104 203.189 205.97C203.64 205.837 204.06 205.616 204.426 205.32C204.792 205.024 205.096 204.659 205.321 204.246C205.545 203.833 205.686 203.379 205.736 202.911L225.133 19.0245C225.233 18.0797 224.953 17.134 224.356 16.3954C223.758 15.6567 222.892 15.1856 221.947 15.0855Z" fill="#3A7EC1"/>
</g>
<path d="M209.159 208.308L66.3309 193.242C65.863 193.192 65.4095 193.051 64.9962 192.826C64.5829 192.602 64.2179 192.298 63.922 191.932C63.6262 191.566 63.4053 191.146 63.2719 190.695C63.1386 190.243 63.0954 189.77 63.1449 189.303L82.5424 5.4199C82.6423 4.47524 83.1132 3.60891 83.8517 3.01144C84.5901 2.41396 85.5357 2.13427 86.4804 2.23387L229.309 17.3006C230.254 17.4004 231.12 17.8713 231.717 18.6098C232.315 19.3483 232.595 20.2938 232.495 21.2385L213.096 205.125C212.996 206.069 212.525 206.935 211.786 207.531C211.048 208.128 210.103 208.408 209.159 208.308Z" fill="white"/>
<path d="M116.843 36.8485L95.3616 34.5831L90.3583 82.0266L111.839 84.2919L116.843 36.8485Z" fill="#9B51E0"/>
<path d="M141.12 63.393L119.639 61.1277L117.137 84.8499L138.618 87.1153L141.12 63.393Z" fill="#360266"/>
<path d="M168.855 57.121L147.374 54.8557L143.913 87.6735L165.394 89.9389L168.855 57.121Z" fill="#5E0AAD"/>
<path d="M181.504 51.9719C182.456 51.5208 182.863 50.3835 182.411 49.4315C181.96 48.4795 180.823 48.0734 179.871 48.5244C178.919 48.9754 178.513 50.1128 178.964 51.0648C179.415 52.0167 180.552 52.4229 181.504 51.9719Z" fill="#55089C"/>
<path d="M213.902 55.6862L187.124 52.8613C186.621 52.8077 186.16 52.5569 185.841 52.1637C185.523 51.7705 185.373 51.2671 185.425 50.7638C185.478 50.2606 185.729 49.7992 186.122 49.4807C186.516 49.1622 187.019 49.0125 187.522 49.0646L214.299 51.8895C214.802 51.9431 215.263 52.1938 215.582 52.5867C215.9 52.9796 216.05 53.4828 215.998 53.9859C215.945 54.4891 215.694 54.9506 215.301 55.2693C214.908 55.588 214.405 55.7379 213.902 55.6862Z" fill="#E4ECF9"/>
<path d="M213.177 62.5478L179.761 59.023C179.258 58.9695 178.797 58.7186 178.478 58.3255C178.159 57.9323 178.01 57.4289 178.062 56.9256C178.115 56.4226 178.366 55.9614 178.759 55.6429C179.152 55.3244 179.655 55.1746 180.158 55.2263L213.574 58.7511C214.077 58.8047 214.539 59.0554 214.857 59.4483C215.176 59.8413 215.325 60.3444 215.274 60.8475C215.22 61.3507 214.97 61.8122 214.577 62.1309C214.184 62.4496 213.681 62.5996 213.177 62.5478Z" fill="#E4ECF9"/>
<path d="M180.193 67.7776C181.012 67.1149 181.139 65.9139 180.476 65.095C179.813 64.2761 178.612 64.1495 177.794 64.8121C176.975 65.4748 176.848 66.6758 177.511 67.4947C178.173 68.3136 179.374 68.4402 180.193 67.7776Z" fill="#9B51E0"/>
<path d="M212.209 71.7278L185.431 68.9082C184.928 68.8546 184.467 68.6038 184.148 68.2106C183.83 67.8174 183.68 67.314 183.732 66.8107C183.786 66.3077 184.036 65.8465 184.429 65.528C184.822 65.2095 185.325 65.0597 185.828 65.1115L212.606 67.9364C213.109 67.99 213.57 68.2407 213.889 68.6336C214.207 69.0265 214.357 69.5297 214.305 70.0328C214.251 70.535 213.999 70.9952 213.607 71.3128C213.214 71.6304 212.711 71.7796 212.209 71.7278Z" fill="#E4ECF9"/>
<path d="M211.488 78.5895L178.069 75.0678C177.566 75.0143 177.105 74.7636 176.787 74.3707C176.468 73.9777 176.318 73.4746 176.37 72.9714C176.424 72.4683 176.675 72.0069 177.068 71.6884C177.461 71.3698 177.964 71.2202 178.468 71.2722L211.884 74.7981C212.387 74.8516 212.848 75.1023 213.166 75.4953C213.485 75.8882 213.635 76.3913 213.583 76.8945C213.528 77.3965 213.277 77.8565 212.885 78.1741C212.492 78.4916 211.99 78.641 211.488 78.5895Z" fill="#E4ECF9"/>
<path d="M179.185 82.6222C179.339 81.5801 178.619 80.6105 177.577 80.4564C176.535 80.3023 175.565 81.0222 175.411 82.0643C175.257 83.1064 175.977 84.0761 177.019 84.2301C178.061 84.3842 179.031 83.6643 179.185 82.6222Z" fill="#5899F9"/>
<path d="M210.517 87.7684L183.739 84.9445C183.236 84.891 182.775 84.6401 182.456 84.247C182.138 83.8538 181.988 83.3504 182.04 82.8471C182.094 82.3439 182.345 81.8825 182.738 81.564C183.131 81.2454 183.634 81.0958 184.138 81.1478L210.915 83.9728C211.418 84.0263 211.879 84.277 212.198 84.67C212.516 85.0629 212.666 85.566 212.614 86.0692C212.561 86.5723 212.31 87.0338 211.917 87.3523C211.524 87.6708 211.02 87.8204 210.517 87.7684Z" fill="#E4ECF9"/>
<path d="M209.789 94.631L176.378 91.1041C175.875 91.0506 175.414 90.7999 175.095 90.4069C174.777 90.014 174.627 89.5109 174.678 89.0077C174.732 88.5048 174.983 88.0435 175.376 87.725C175.769 87.4065 176.272 87.2568 176.775 87.3085L210.191 90.8344C210.694 90.8879 211.155 91.1386 211.474 91.5316C211.792 91.9245 211.942 92.4276 211.89 92.9308C211.837 93.4349 211.586 93.8973 211.192 94.2162C210.797 94.535 210.293 94.6843 209.789 94.631Z" fill="#E4ECF9"/>
<path d="M119.15 104.232L91.0304 101.264C90.321 101.188 89.6708 100.833 89.222 100.279C88.7733 99.7241 88.5624 99.0143 88.6356 98.3046C88.7121 97.5952 89.0665 96.945 89.6212 96.4962C90.1758 96.0474 90.8857 95.8366 91.5954 95.9098L119.714 98.8759C120.424 98.9528 121.074 99.3071 121.523 99.8617C121.972 100.416 122.183 101.126 122.11 101.836C122.033 102.545 121.679 103.195 121.124 103.644C120.57 104.093 119.86 104.304 119.15 104.232Z" fill="#360266"/>
<path d="M205.601 126.894L89.6178 114.653C88.9084 114.577 88.2582 114.222 87.8094 113.668C87.3607 113.113 87.1498 112.403 87.223 111.693C87.2995 110.984 87.6539 110.334 88.2086 109.885C88.7632 109.436 89.4731 109.225 90.1828 109.299L206.166 121.533C206.875 121.61 207.525 121.964 207.974 122.519C208.422 123.074 208.633 123.783 208.561 124.493C208.485 125.203 208.131 125.854 207.577 126.304C207.022 126.755 206.312 126.966 205.601 126.894Z" fill="#E4ECF9"/>
<path d="M204.189 140.275L88.2055 128.042C87.4961 127.965 86.8459 127.611 86.3971 127.056C85.9483 126.502 85.7374 125.792 85.8106 125.082C85.8872 124.373 86.2415 123.722 86.7962 123.274C87.3509 122.825 88.0607 122.614 88.7705 122.687L204.754 134.922C205.463 134.999 206.113 135.353 206.561 135.908C207.01 136.462 207.221 137.172 207.148 137.881C207.071 138.59 206.716 139.24 206.162 139.688C205.607 140.137 204.898 140.348 204.189 140.275Z" fill="#E4ECF9"/>
<path d="M202.779 153.666L86.793 141.431C86.0837 141.354 85.4337 140.999 84.985 140.445C84.5362 139.89 84.3253 139.181 84.3982 138.471C84.475 137.761 84.8294 137.111 85.384 136.662C85.9385 136.214 86.6482 136.002 87.358 136.075L203.341 148.31C204.05 148.387 204.7 148.742 205.149 149.296C205.598 149.851 205.809 150.561 205.736 151.27C205.659 151.979 205.305 152.629 204.751 153.077C204.197 153.526 203.489 153.738 202.779 153.666Z" fill="#E4ECF9"/>
<path d="M187.699 165.613L85.3803 154.825C84.6712 154.748 84.0213 154.393 83.5726 153.839C83.1239 153.284 82.9129 152.574 82.9855 151.865C83.0623 151.156 83.4167 150.505 83.9713 150.056C84.5258 149.608 85.2355 149.396 85.9453 149.469L188.26 160.262C188.97 160.339 189.62 160.694 190.069 161.249C190.518 161.803 190.729 162.513 190.656 163.223C190.578 163.931 190.223 164.579 189.669 165.026C189.115 165.474 188.407 165.684 187.699 165.613Z" fill="#E4ECF9"/>
<path d="M130.405 17.3105L100.222 14.1245C99.513 14.0474 98.8631 13.6929 98.4144 13.1384C97.9657 12.5838 97.7547 11.8743 97.8273 11.1647C97.9038 10.4553 98.2582 9.80512 98.8128 9.35632C99.3675 8.90753 100.077 8.69667 100.787 8.76986L130.97 11.9559C131.68 12.0327 132.33 12.3871 132.779 12.9417C133.228 13.4963 133.439 14.2059 133.366 14.9157C133.29 15.6252 132.935 16.2754 132.38 16.7241C131.825 17.1729 131.115 17.3837 130.405 17.3105Z" fill="#360266"/>
<path d="M214.969 38.077L109.028 26.9015C108.319 26.8244 107.669 26.4698 107.22 25.915C106.771 25.3603 106.56 24.6505 106.632 23.9406C106.71 23.2314 107.064 22.5815 107.619 22.1329C108.174 21.6842 108.883 21.4732 109.593 21.5458L215.534 32.7213C216.243 32.7981 216.893 33.1526 217.342 33.7072C217.791 34.2618 218.002 34.9714 217.929 35.6811C217.852 36.3905 217.497 37.0406 216.943 37.4895C216.388 37.9384 215.679 38.1496 214.969 38.077Z" fill="#E4ECF9"/>
<g style="mix-blend-mode:multiply" opacity="0.2">
<path d="M152.865 85.8388C135.873 100.343 133.847 125.884 148.351 142.875C161.62 158.431 184.115 161.441 200.87 150.734L207.384 158.371L204.811 160.566L240.06 201.885C240.887 202.852 242.064 203.451 243.332 203.551C244.6 203.65 245.856 203.242 246.824 202.416L253.196 196.981C254.164 196.155 254.764 194.979 254.865 193.71C254.965 192.442 254.558 191.185 253.732 190.217L218.482 148.899L215.909 151.095L209.397 143.461C222.61 128.604 223.186 105.907 209.916 90.3608C195.413 73.3623 169.872 71.336 152.865 85.8388ZM204.344 95.1176C216.225 109.03 214.561 129.951 200.635 141.832C186.709 153.713 165.801 152.05 153.919 138.134C142.038 124.219 143.691 103.289 157.617 91.4058C171.543 79.523 192.467 81.1904 204.348 95.1176H204.344Z" fill="#3A7EC1"/>
</g>
<g style="mix-blend-mode:multiply" opacity="0.2">
<path d="M181.256 147.479C200.949 147.479 216.915 131.514 216.915 111.82C216.915 92.1258 200.949 76.1606 181.256 76.1606C161.562 76.1606 145.596 92.1258 145.596 111.82C145.596 131.514 161.562 147.479 181.256 147.479Z" fill="#3A7EC1"/>
</g>
<path opacity="0.6" d="M207.603 116.35C207.529 116.352 207.454 116.349 207.381 116.341C207.173 116.318 206.971 116.254 206.787 116.154C206.604 116.053 206.442 115.917 206.311 115.754C206.18 115.59 206.082 115.403 206.024 115.202C205.966 115.001 205.947 114.79 205.97 114.582C206.041 113.939 206.088 113.289 206.111 112.632C206.56 98.9322 195.775 87.4137 182.07 86.9645C179.833 86.8877 177.596 87.1146 175.42 87.6388C175.216 87.6876 175.005 87.6959 174.798 87.663C174.591 87.6302 174.393 87.557 174.214 87.4475C174.036 87.3381 173.881 87.1945 173.758 87.0251C173.635 86.8556 173.546 86.6636 173.497 86.46C173.448 86.2564 173.44 86.0451 173.473 85.8383C173.506 85.6315 173.579 85.4332 173.689 85.2547C173.798 85.0762 173.942 84.9211 174.111 84.798C174.281 84.675 174.472 84.5866 174.676 84.5378C177.13 83.9474 179.653 83.6912 182.176 83.7763C197.638 84.2829 209.805 97.2755 209.299 112.736C209.274 113.475 209.222 114.206 209.143 114.929C209.101 115.312 208.922 115.667 208.639 115.929C208.356 116.19 207.988 116.34 207.603 116.35Z" fill="white"/>
<path d="M209.73 136.553L201.208 143.824L210.923 155.21L219.445 147.939L209.73 136.553Z" fill="#4C4C4C"/>
<path d="M154.989 81.0373C137.997 95.5412 135.971 121.082 150.474 138.074C164.977 155.065 190.512 157.103 207.51 142.599C224.509 128.095 226.539 102.555 212.036 85.5636C197.532 68.5725 171.995 66.5345 154.989 81.0373ZM206.467 90.3161C218.348 104.228 216.685 125.15 202.758 137.031C188.831 148.911 167.924 147.248 156.042 133.333C144.16 119.417 145.814 98.4872 159.741 86.6043C173.668 74.7215 194.59 76.3889 206.471 90.3161H206.467Z" fill="#5E5E5E"/>
<path d="M255.32 192.186L248.948 197.62C247.981 198.447 246.725 198.855 245.457 198.755C244.188 198.656 243.011 198.057 242.185 197.089L206.935 155.771L220.605 144.109L255.854 185.428C256.679 186.395 257.085 187.65 256.985 188.917C256.885 190.185 256.286 191.36 255.32 192.186Z" fill="#5E5E5E"/>
</svg>
